<svg xmlns="http://www.w3.org/2000/svg" xmlns:xlink="http://www.w3.org/1999/xlink" width="500" zoomAndPan="magnify" viewBox="0 0 375 374.999991" height="500" preserveAspectRatio="xMidYMid meet" version="1.0"><defs><clipPath id="cad25c8ea9"><path d="M 93.601562 104 L 281 104 L 281 272 L 93.601562 272 Z M 93.601562 104 " clip-rule="nonzero"/></clipPath></defs><g clip-path="url(#cad25c8ea9)"><path fill="#00d8ff" d="M 247.636719 158.226562 C 245.699219 157.558594 243.691406 156.925781 241.613281 156.324219 C 241.957031 154.929688 242.273438 153.554688 242.550781 152.203125 C 247.101562 130.011719 244.128906 112.128906 233.945312 106.242188 C 224.183594 100.597656 208.21875 106.484375 192.09375 120.554688 C 190.546875 121.90625 188.988281 123.339844 187.4375 124.839844 C 186.402344 123.847656 185.371094 122.886719 184.339844 121.96875 C 167.441406 106.925781 150.503906 100.585938 140.335938 106.488281 C 130.582031 112.148438 127.695312 128.957031 131.796875 149.992188 C 132.195312 152.023438 132.65625 154.097656 133.179688 156.207031 C 130.785156 156.890625 128.472656 157.617188 126.257812 158.390625 C 106.445312 165.316406 93.796875 176.171875 93.796875 187.433594 C 93.796875 199.058594 107.375 210.726562 128.011719 217.796875 C 129.636719 218.355469 131.328125 218.882812 133.070312 219.382812 C 132.503906 221.660156 132.011719 223.894531 131.601562 226.082031 C 127.6875 246.75 130.742188 263.160156 140.46875 268.78125 C 150.515625 274.59375 167.375 268.621094 183.792969 254.234375 C 185.09375 253.097656 186.394531 251.886719 187.695312 250.625 C 189.390625 252.253906 191.078125 253.800781 192.753906 255.25 C 208.65625 268.972656 224.363281 274.511719 234.078125 268.875 C 244.113281 263.050781 247.382812 245.414062 243.140625 223.96875 C 242.820312 222.328125 242.441406 220.65625 242.023438 218.957031 C 243.207031 218.605469 244.371094 218.238281 245.503906 217.863281 C 266.953125 210.734375 280.90625 199.21875 280.90625 187.433594 C 280.90625 176.132812 267.847656 165.203125 247.636719 158.226562 Z M 242.988281 210.257812 C 241.964844 210.59375 240.914062 210.921875 239.84375 211.238281 C 237.476562 203.726562 234.28125 195.730469 230.367188 187.46875 C 234.101562 179.40625 237.171875 171.515625 239.472656 164.046875 C 241.386719 164.601562 243.242188 165.1875 245.035156 165.804688 C 262.351562 171.785156 272.910156 180.625 272.910156 187.433594 C 272.910156 194.679688 261.507812 204.097656 242.988281 210.257812 Z M 235.300781 225.523438 C 237.175781 235.007812 237.441406 243.582031 236.199219 250.289062 C 235.085938 256.3125 232.84375 260.332031 230.074219 261.9375 C 224.175781 265.359375 211.566406 260.910156 197.972656 249.175781 C 196.40625 247.828125 194.835938 246.390625 193.265625 244.871094 C 198.535156 239.089844 203.804688 232.367188 208.949219 224.902344 C 217.992188 224.101562 226.535156 222.78125 234.289062 220.988281 C 234.671875 222.53125 235.007812 224.042969 235.300781 225.523438 Z M 157.589844 261.34375 C 151.828125 263.386719 147.238281 263.445312 144.464844 261.839844 C 138.5625 258.425781 136.109375 245.246094 139.457031 227.574219 C 139.839844 225.554688 140.296875 223.472656 140.824219 221.34375 C 148.488281 223.046875 156.96875 224.269531 166.039062 225.003906 C 171.214844 232.308594 176.640625 239.023438 182.097656 244.902344 C 180.90625 246.058594 179.714844 247.160156 178.53125 248.191406 C 171.273438 254.5625 164 259.078125 157.589844 261.34375 Z M 130.597656 210.210938 C 121.472656 207.082031 113.941406 203.023438 108.773438 198.582031 C 104.132812 194.601562 101.792969 190.644531 101.792969 187.433594 C 101.792969 180.601562 111.949219 171.882812 128.890625 165.960938 C 130.945312 165.242188 133.097656 164.566406 135.332031 163.929688 C 137.671875 171.566406 140.746094 179.554688 144.449219 187.625 C 140.695312 195.816406 137.582031 203.929688 135.214844 211.664062 C 133.625 211.203125 132.082031 210.71875 130.597656 210.210938 Z M 139.644531 148.453125 C 136.128906 130.433594 138.464844 116.839844 144.339844 113.425781 C 150.601562 109.792969 164.441406 114.972656 179.027344 127.964844 C 179.964844 128.792969 180.898438 129.664062 181.84375 130.5625 C 176.40625 136.417969 171.03125 143.082031 165.902344 150.34375 C 157.101562 151.160156 148.675781 152.472656 140.933594 154.234375 C 140.445312 152.269531 140.015625 150.339844 139.644531 148.453125 Z M 220.351562 168.4375 C 218.503906 165.230469 216.601562 162.101562 214.667969 159.054688 C 220.636719 159.8125 226.351562 160.816406 231.726562 162.046875 C 230.117188 167.226562 228.109375 172.648438 225.738281 178.203125 C 224.042969 174.972656 222.246094 171.714844 220.351562 168.4375 Z M 187.441406 136.289062 C 191.132812 140.296875 194.820312 144.769531 198.453125 149.621094 C 194.792969 149.445312 191.085938 149.355469 187.351562 149.355469 C 183.652344 149.355469 179.976562 149.445312 176.335938 149.617188 C 179.96875 144.808594 183.699219 140.34375 187.441406 136.289062 Z M 154.316406 168.492188 C 152.46875 171.710938 150.703125 174.949219 149.035156 178.199219 C 146.707031 172.660156 144.714844 167.21875 143.089844 161.960938 C 148.425781 160.761719 154.121094 159.78125 160.050781 159.039062 C 158.085938 162.113281 156.171875 165.269531 154.316406 168.492188 Z M 160.222656 216.390625 C 154.09375 215.710938 148.316406 214.777344 142.980469 213.613281 C 144.632812 208.261719 146.667969 202.707031 149.042969 197.046875 C 150.71875 200.296875 152.488281 203.535156 154.347656 206.761719 C 156.242188 210.042969 158.207031 213.253906 160.222656 216.390625 Z M 187.660156 239.132812 C 183.871094 235.035156 180.09375 230.5 176.402344 225.625 C 179.984375 225.765625 183.640625 225.839844 187.351562 225.839844 C 191.167969 225.839844 194.9375 225.75 198.644531 225.589844 C 195.003906 230.550781 191.320312 235.09375 187.660156 239.132812 Z M 225.8125 196.761719 C 228.3125 202.480469 230.425781 208.007812 232.097656 213.269531 C 226.675781 214.507812 220.8125 215.503906 214.644531 216.25 C 216.589844 213.167969 218.503906 209.976562 220.390625 206.703125 C 222.296875 203.386719 224.101562 200.070312 225.8125 196.761719 Z M 213.460938 202.699219 C 210.535156 207.785156 207.53125 212.636719 204.484375 217.21875 C 198.9375 217.613281 193.199219 217.820312 187.351562 217.820312 C 181.527344 217.820312 175.863281 217.644531 170.410156 217.285156 C 167.238281 212.644531 164.171875 207.777344 161.265625 202.742188 C 158.367188 197.722656 155.699219 192.660156 153.28125 187.625 C 155.699219 182.582031 158.359375 177.507812 161.242188 172.496094 L 161.242188 172.5 C 164.128906 167.472656 167.171875 162.628906 170.316406 158.015625 C 175.875 157.59375 181.585938 157.371094 187.351562 157.371094 C 193.148438 157.371094 198.855469 157.59375 204.417969 158.019531 C 207.519531 162.601562 210.535156 167.429688 213.4375 172.453125 C 216.371094 177.539062 219.066406 182.574219 221.5 187.511719 C 219.074219 192.535156 216.382812 197.621094 213.460938 202.699219 Z M 229.949219 113.1875 C 236.222656 116.808594 238.65625 131.421875 234.714844 150.585938 C 234.464844 151.808594 234.179688 153.050781 233.875 154.316406 C 226.113281 152.519531 217.683594 151.183594 208.863281 150.351562 C 203.71875 143.007812 198.390625 136.335938 193.039062 130.554688 C 194.476562 129.167969 195.917969 127.847656 197.34375 126.597656 C 211.15625 114.542969 224.074219 109.785156 229.949219 113.1875 Z M 187.351562 170.675781 C 196.578125 170.675781 204.0625 178.171875 204.0625 187.429688 C 204.0625 196.679688 196.578125 204.183594 187.351562 204.183594 C 178.128906 204.183594 170.644531 196.679688 170.644531 187.429688 C 170.644531 178.171875 178.128906 170.675781 187.351562 170.675781 Z M 187.351562 170.675781 " fill-opacity="1" fill-rule="nonzero"/></g></svg>