<svg xmlns="http://www.w3.org/2000/svg" xmlns:xlink="http://www.w3.org/1999/xlink" width="500" zoomAndPan="magnify" viewBox="0 0 375 374.999991" height="500" preserveAspectRatio="xMidYMid meet" version="1.0"><defs><clipPath id="b2ca95c640"><path d="M 162 87.695312 L 233 87.695312 L 233 204 L 162 204 Z M 162 87.695312 " clip-rule="nonzero"/></clipPath></defs><path fill="#4e7896" d="M 162.382812 240.5 C 162.382812 240.5 154.769531 245.121094 167.671875 246.441406 C 183.203125 248.417969 191.476562 248.089844 208.664062 244.792969 C 212.125 246.910156 215.761719 248.667969 219.574219 250.074219 C 180.902344 266.578125 131.957031 249.085938 162.375 240.5 Z M 157.429688 219.050781 C 157.429688 219.050781 149.164062 225.316406 162.058594 226.644531 C 178.921875 228.296875 192.144531 228.621094 214.960938 224.007812 C 217.214844 226.285156 219.855469 227.9375 222.894531 228.957031 C 176.277344 242.816406 124.042969 230.277344 157.429688 219.054688 Z M 248.679688 256.664062 C 248.679688 256.664062 254.296875 261.285156 242.398438 264.914062 C 220.246094 271.523438 149.5 273.5 129.664062 264.914062 C 122.71875 261.949219 135.941406 257.660156 140.179688 256.996094 C 144.480469 256.007812 146.800781 256.007812 146.800781 256.007812 C 139.191406 250.726562 96.21875 266.898438 124.984375 271.511719 C 204 284.382812 269.128906 265.902344 248.628906 256.664062 Z M 165.957031 196.605469 C 165.957031 196.605469 129.921875 205.1875 153.0625 208.152344 C 162.980469 209.476562 182.484375 209.140625 200.667969 207.828125 C 215.542969 206.503906 230.429688 203.875 230.429688 203.875 C 230.429688 203.875 225.140625 206.183594 221.503906 208.492188 C 184.8125 218.066406 114.386719 213.773438 134.554688 203.875 C 151.746094 195.621094 165.964844 196.617188 165.964844 196.617188 Z M 230.429688 232.574219 C 267.457031 213.429688 250.269531 194.960938 238.363281 197.265625 C 235.394531 197.925781 234.0625 198.585938 234.0625 198.585938 C 234.0625 198.585938 235.054688 196.609375 237.367188 195.949219 C 260.84375 187.699219 279.355469 220.699219 229.757812 233.5625 C 229.757812 233.5625 230.085938 233.238281 230.417969 232.574219 Z M 169.609375 284.71875 C 205.308594 287.027344 259.863281 283.394531 261.183594 266.558594 C 261.183594 266.558594 258.539062 273.167969 231.761719 278.109375 C 201.34375 283.71875 163.65625 283.050781 141.503906 279.429688 C 141.503906 279.429688 146.132812 283.382812 169.609375 284.710938 Z M 169.609375 284.71875 " fill-opacity="1" fill-rule="nonzero"/><g clip-path="url(#b2ca95c640)"><path fill="#f58219" d="M 208.007812 87.699219 C 208.007812 87.699219 228.507812 108.492188 188.503906 139.84375 C 156.433594 165.253906 181.234375 179.773438 188.503906 196.277344 C 169.65625 179.445312 156.105469 164.589844 165.363281 150.738281 C 178.914062 130.269531 216.273438 120.429688 208.007812 87.699219 Z M 197.488281 182.417969 C 207.078125 193.304688 194.847656 203.207031 194.847656 203.207031 C 194.847656 203.207031 219.3125 190.667969 208.070312 175.152344 C 197.824219 160.304688 189.878906 153.042969 232.863281 128.292969 C 232.863281 128.292969 165.089844 145.121094 197.488281 182.417969 Z M 197.488281 182.417969 " fill-opacity="1" fill-rule="nonzero"/></g></svg>