<svg xmlns="http://www.w3.org/2000/svg" xmlns:xlink="http://www.w3.org/1999/xlink" width="500" zoomAndPan="magnify" viewBox="0 0 375 374.999991" height="500" preserveAspectRatio="xMidYMid meet" version="1.0"><defs><clipPath id="c53087e8b7"><path d="M 96 98.539062 L 279 98.539062 L 279 276 L 96 276 Z M 96 98.539062 " clip-rule="nonzero"/></clipPath></defs><g clip-path="url(#c53087e8b7)"><path fill="#326ce5" d="M 186.832031 98.53125 C 185.183594 98.628906 183.617188 99.042969 182.136719 99.773438 L 118.535156 130.113281 C 115.214844 131.695312 112.800781 134.703125 111.972656 138.285156 L 96.40625 206.378906 C 95.664062 209.574219 96.261719 212.921875 98.117188 215.664062 C 98.335938 215.992188 98.5625 216.3125 98.804688 216.621094 L 142.742188 271.261719 C 145.066406 274.113281 148.550781 275.753906 152.226562 275.734375 L 222.703125 275.734375 C 226.390625 275.742188 229.882812 274.023438 232.199219 271.210938 L 276.117188 216.558594 C 278.421875 213.703125 279.28125 209.9375 278.398438 206.367188 L 262.726562 138.21875 C 261.902344 134.632812 259.476562 131.625 256.164062 130.042969 L 192.667969 99.78125 C 190.808594 98.863281 188.84375 98.445312 186.773438 98.53125 Z M 186.832031 98.53125 " fill-opacity="1" fill-rule="nonzero"/></g><path stroke-linecap="butt" transform="matrix(5.706521, 0, 0, 5.707077, 96.097988, 95.813754)" fill-opacity="1" fill="#ffffff" fill-rule="nonzero" stroke-linejoin="miter" d="M 16.002056 4.541839 C 15.618038 4.569217 15.327115 4.897756 15.346967 5.281737 L 15.346967 5.469963 C 15.364764 5.682829 15.396937 5.894326 15.438693 6.103086 C 15.5003 6.504177 15.522205 6.907323 15.505092 7.313206 C 15.466758 7.445991 15.390776 7.565771 15.286729 7.658172 L 15.271669 7.940169 C 14.867115 7.973707 14.4653 8.035993 14.068961 8.126341 C 12.40283 8.502108 10.885925 9.365893 9.714704 10.610921 L 9.475121 10.441176 C 9.343008 10.480874 9.201312 10.465816 9.080151 10.400793 C 8.754317 10.159864 8.455865 9.890187 8.18274 9.59108 C 8.04652 9.427494 7.900716 9.272807 7.746014 9.126333 L 7.598157 9.007922 C 7.466044 8.901831 7.303811 8.840914 7.134734 8.832701 C 7.03274 8.82791 6.934853 8.845706 6.841073 8.887458 C 6.747294 8.928525 6.668573 8.989442 6.604228 9.068839 C 6.378335 9.385742 6.452264 9.825164 6.767829 10.051719 L 6.906103 10.161917 C 7.084079 10.280328 7.267532 10.387788 7.457829 10.484981 C 7.811728 10.682104 8.145776 10.912767 8.455865 11.185181 C 8.536639 11.300169 8.581133 11.428163 8.588663 11.569161 L 8.807026 11.769023 C 7.630329 13.534922 7.147055 15.673851 7.44893 17.775135 L 7.16896 17.855216 C 7.095716 17.97089 6.999198 18.070136 6.882829 18.142688 C 6.491282 18.24741 6.093573 18.313118 5.68902 18.339812 C 5.474764 18.344603 5.261192 18.36103 5.04899 18.389777 L 4.871698 18.43016 L 4.851847 18.43016 C 4.726579 18.447272 4.615686 18.496553 4.517799 18.576634 C 4.420597 18.6574 4.350776 18.757331 4.310389 18.877111 C 4.269317 18.996207 4.262472 19.11804 4.290537 19.241242 C 4.318603 19.364445 4.376787 19.471904 4.465091 19.562253 C 4.554079 19.651917 4.66018 19.711464 4.783395 19.741581 C 4.906609 19.771012 5.028454 19.766221 5.14893 19.727207 L 5.161936 19.727207 L 5.341966 19.706673 C 5.54527 19.647125 5.745151 19.573204 5.94024 19.489016 C 6.314674 19.33912 6.704169 19.224131 7.101877 19.148841 C 7.240151 19.157054 7.372264 19.204282 7.483841 19.283679 L 7.783663 19.233713 C 8.43396 21.250809 9.80027 22.959898 11.623841 24.037234 L 11.501996 24.291852 C 11.558127 24.408894 11.578663 24.538941 11.562234 24.668304 C 11.397264 25.050231 11.19533 25.415731 10.959169 25.760013 C 10.829109 25.931127 10.710002 26.108402 10.601163 26.293205 L 10.516282 26.473217 C 10.453306 26.582046 10.423187 26.699773 10.426609 26.825028 C 10.430032 26.950969 10.466312 27.066642 10.534764 27.172733 C 10.603216 27.278139 10.694258 27.358221 10.807889 27.412293 C 10.92152 27.466365 11.040627 27.486899 11.165895 27.473894 C 11.291847 27.460205 11.404109 27.413662 11.503365 27.336318 C 11.603306 27.25829 11.675181 27.160413 11.71899 27.042001 L 11.801818 26.872256 C 11.8778 26.67171 11.942145 26.467742 11.994169 26.26172 C 12.170776 25.825036 12.267294 25.356183 12.508931 25.065973 C 12.589705 24.989999 12.685538 24.943456 12.795062 24.92566 L 12.944972 24.653246 C 13.435092 24.841471 13.938217 24.983839 14.454348 25.080347 C 14.970479 25.176855 15.491401 25.225452 16.016431 25.226821 C 16.541461 25.22819 17.062383 25.181647 17.579199 25.087876 C 18.096014 24.994105 18.599824 24.853792 19.091312 24.668304 L 19.22411 24.922922 C 19.36033 24.942771 19.482175 25.018061 19.564318 25.128259 C 19.751878 25.48623 19.903842 25.861313 20.020211 26.248031 C 20.072919 26.455422 20.137265 26.65939 20.213931 26.859251 L 20.296759 27.028997 C 20.341253 27.146723 20.413812 27.244601 20.513068 27.321944 C 20.613009 27.399288 20.725271 27.444462 20.850538 27.458151 C 20.975806 27.472525 21.094913 27.451991 21.209229 27.398604 C 21.323544 27.345216 21.414586 27.265134 21.483723 27.159728 C 21.552175 27.054322 21.588455 26.937964 21.591193 26.812024 C 21.593931 26.685399 21.563812 26.568357 21.500152 26.458844 L 21.413217 26.278832 C 21.303693 26.095397 21.184586 25.918123 21.055211 25.747693 C 20.825211 25.415731 20.626699 25.061867 20.454884 24.690891 C 20.421342 24.547839 20.443931 24.415055 20.523336 24.291168 C 20.480211 24.203557 20.443247 24.113893 20.411759 24.022176 C 22.231908 22.937311 23.592056 21.222062 24.234824 19.202228 L 24.518902 19.252194 C 24.620896 19.159107 24.755062 19.109826 24.891967 19.113933 C 25.288991 19.189908 25.677801 19.313795 26.054289 19.454108 C 26.248694 19.543772 26.449259 19.619747 26.651878 19.684086 C 26.699795 19.697091 26.770301 19.708042 26.823694 19.721047 L 26.8367 19.721047 C 26.957176 19.760061 27.079021 19.764168 27.201551 19.734051 C 27.324765 19.70462 27.430866 19.644388 27.51917 19.554039 C 27.608158 19.464375 27.667027 19.3576 27.695777 19.234398 C 27.723842 19.111195 27.718366 18.990046 27.677979 18.870266 C 27.636908 18.750486 27.567086 18.649871 27.4692 18.56979 C 27.371313 18.489708 27.259735 18.441112 27.133783 18.424 L 26.940063 18.378142 C 26.72786 18.34871 26.514289 18.332283 26.300033 18.328176 C 25.896164 18.302167 25.495717 18.235775 25.106223 18.131053 C 24.985747 18.063976 24.885807 17.964045 24.818039 17.842896 L 24.548336 17.762815 C 24.619527 17.242627 24.642801 16.719702 24.619527 16.194723 C 24.595568 15.669744 24.524378 15.150926 24.405955 14.638952 C 24.287533 14.126978 24.123931 13.630062 23.914467 13.148204 C 23.705687 12.665662 23.454467 12.206391 23.162175 11.769707 L 23.398336 11.55205 C 23.388068 11.415158 23.433247 11.278951 23.522235 11.174229 C 23.828902 10.910029 24.162265 10.677313 24.512057 10.478136 C 24.702354 10.380943 24.886491 10.273484 25.063783 10.155072 L 25.210271 10.036661 C 25.319795 9.9689 25.402622 9.876498 25.459438 9.760825 C 25.515568 9.644467 25.536789 9.522634 25.522414 9.393956 C 25.508723 9.265962 25.460807 9.150974 25.380717 9.050358 C 25.299943 8.949059 25.198634 8.877191 25.076789 8.834754 C 24.954943 8.792318 24.831729 8.786158 24.705777 8.814905 C 24.579824 8.844337 24.47167 8.904569 24.381312 8.996286 L 24.232771 9.114013 C 24.078753 9.260487 23.932949 9.415859 23.796045 9.578759 C 23.531818 9.88129 23.240211 10.155757 22.923277 10.402161 C 22.792533 10.454865 22.657681 10.469923 22.518723 10.445967 L 22.266134 10.625979 C 20.806044 9.096217 18.838723 8.14619 16.731074 7.955911 C 16.731074 7.855981 16.718068 7.706084 16.716014 7.658857 C 16.603068 7.580829 16.524348 7.461733 16.498336 7.326895 C 16.483961 6.922381 16.509288 6.51992 16.574318 6.120197 C 16.616758 5.910069 16.646877 5.69994 16.666044 5.487074 L 16.666044 5.287213 C 16.685895 4.903232 16.396342 4.574008 16.010955 4.547314 Z M 15.168306 9.708122 L 14.96774 13.200907 L 14.952681 13.200907 C 14.943098 13.417196 14.815776 13.601315 14.620687 13.704668 C 14.426282 13.808705 14.194913 13.777905 14.021044 13.65128 L 11.156312 11.62118 C 11.612205 11.17286 12.120806 10.796409 12.682115 10.490456 C 13.24274 10.185189 13.835538 9.962055 14.459139 9.821742 C 14.693246 9.771776 14.928723 9.734131 15.166252 9.708122 Z M 16.835806 9.708122 C 18.341074 9.894979 19.742294 10.571222 20.825896 11.632131 L 17.98786 13.649227 C 17.813306 13.788856 17.573038 13.816919 17.369735 13.721095 C 17.167116 13.625271 17.037056 13.421302 17.034318 13.1968 Z M 10.115835 12.935338 L 12.736193 15.272759 L 12.736193 15.287817 C 12.899109 15.430184 12.9703 15.651264 12.921699 15.862077 C 12.873782 16.07289 12.712234 16.239897 12.504824 16.296707 L 12.504824 16.306974 L 9.143127 17.274112 C 9.101371 16.897661 9.091788 16.521209 9.112323 16.143389 C 9.133544 15.765568 9.185567 15.391855 9.268395 15.022932 C 9.351222 14.65401 9.464169 14.293985 9.60655 13.943543 C 9.748931 13.593101 9.918693 13.256348 10.117204 12.933969 Z M 21.86911 12.935338 C 22.665211 14.230331 23.017056 15.749141 22.871253 17.261792 L 19.50408 16.291916 L 19.50408 16.278911 C 19.293931 16.222101 19.133753 16.055094 19.087205 15.844281 C 19.039973 15.632784 19.109794 15.413757 19.272711 15.270021 L 21.873217 12.942867 Z M 15.464705 15.454825 L 16.536669 15.454825 L 17.191758 16.287125 L 16.954229 17.326815 L 15.991104 17.790193 L 15.025925 17.326815 L 14.798663 16.287125 Z M 18.898961 18.293269 C 18.94414 18.287793 18.998901 18.287793 19.033812 18.293269 L 22.500925 18.877795 C 22.001223 20.317894 21.01414 21.547863 19.725866 22.371265 L 18.386253 19.126938 C 18.36777 19.083817 18.354764 19.038643 18.347235 18.9921 C 18.339705 18.944872 18.337651 18.898329 18.341074 18.851102 C 18.344497 18.803874 18.35408 18.758015 18.368455 18.712841 C 18.383514 18.668352 18.403366 18.625915 18.428009 18.585532 C 18.453336 18.545149 18.48277 18.508873 18.516312 18.476019 C 18.549854 18.442481 18.587503 18.413733 18.627889 18.389777 C 18.668276 18.365821 18.711401 18.346657 18.75658 18.332968 C 18.801759 18.319278 18.847622 18.311065 18.894854 18.308327 Z M 13.075717 18.308327 C 13.272175 18.311065 13.452889 18.41168 13.559675 18.57595 C 13.667145 18.74022 13.684258 18.946241 13.606907 19.126253 L 13.606907 19.139258 L 12.274824 22.356892 C 11.00024 21.540334 10.032323 20.324738 9.516877 18.899698 L 12.953871 18.317225 C 12.992205 18.313118 13.031222 18.313118 13.07024 18.317225 Z M 15.980151 19.708042 C 16.091729 19.70462 16.195776 19.730629 16.292294 19.78607 C 16.388812 19.841511 16.46411 19.91817 16.516818 20.016048 L 16.529824 20.016048 L 18.22402 23.072834 L 17.547026 23.272695 C 16.301193 23.558114 14.999913 23.491037 13.78899 23.078994 L 15.488663 20.022208 C 15.592026 19.842196 15.782324 19.731998 15.98905 19.727207 Z M 15.980151 19.708042 " stroke="#ffffff" stroke-width="0.055" stroke-opacity="1" stroke-miterlimit="4"/></svg>