<svg xmlns="http://www.w3.org/2000/svg" xmlns:xlink="http://www.w3.org/1999/xlink" width="500" zoomAndPan="magnify" viewBox="0 0 375 374.999991" height="500" preserveAspectRatio="xMidYMid meet" version="1.0"><defs><clipPath id="5403ce269c"><path d="M 103 90.003906 L 275.457031 90.003906 L 275.457031 281 L 103 281 Z M 103 90.003906 " clip-rule="nonzero"/></clipPath><clipPath id="3af12d82b1"><path d="M 103 90.003906 L 273 90.003906 L 273 233 L 103 233 Z M 103 90.003906 " clip-rule="nonzero"/></clipPath><clipPath id="7b6399a81c"><path d="M 187 136 L 275.457031 136 L 275.457031 234 L 187 234 Z M 187 136 " clip-rule="nonzero"/></clipPath></defs><g clip-path="url(#5403ce269c)"><path fill="#00c853" d="M 184.253906 91.75 C 187.320312 90.023438 191.097656 90.023438 194.15625 91.75 C 209.3125 100.285156 254.914062 125.972656 270.074219 134.507812 C 273.140625 136.230469 275.027344 139.417969 275.027344 142.871094 C 275.027344 159.941406 275.027344 211.308594 275.027344 228.378906 C 275.027344 231.832031 273.140625 235.019531 270.074219 236.75 C 254.917969 245.28125 209.316406 270.96875 194.15625 279.503906 C 191.089844 281.230469 187.316406 281.230469 184.253906 279.503906 C 169.097656 270.96875 123.496094 245.28125 108.335938 236.75 C 105.273438 235.019531 103.386719 231.835938 103.386719 228.382812 C 103.386719 211.316406 103.386719 159.945312 103.386719 142.878906 C 103.386719 139.421875 105.273438 136.234375 108.34375 134.507812 C 123.492188 125.972656 169.101562 100.285156 184.253906 91.75 Z M 184.253906 91.75 " fill-opacity="1" fill-rule="nonzero"/></g><g clip-path="url(#3af12d82b1)"><path fill="#69f0ae" d="M 104.761719 232.777344 C 103.558594 231.164062 103.386719 229.632812 103.386719 227.570312 C 103.386719 210.601562 103.386719 159.527344 103.386719 142.554688 C 103.386719 139.121094 105.269531 135.949219 108.328125 134.234375 C 123.429688 125.75 168.878906 100.210938 183.976562 91.722656 C 187.035156 90.007812 191.175781 90.042969 194.234375 91.761719 C 209.335938 100.246094 254.628906 125.566406 269.730469 134.046875 C 270.949219 134.738281 271.878906 135.566406 272.710938 136.660156 Z M 104.761719 232.777344 " fill-opacity="1" fill-rule="nonzero"/></g><path fill="#ffffff" d="M 189.207031 122.179688 C 154.292969 122.179688 125.972656 150.59375 125.972656 185.628906 C 125.972656 220.660156 154.292969 249.074219 189.207031 249.074219 C 224.125 249.074219 252.445312 220.660156 252.445312 185.628906 C 252.445312 150.59375 224.125 122.179688 189.207031 122.179688 Z M 189.207031 217.351562 C 171.773438 217.351562 157.589844 203.121094 157.589844 185.628906 C 157.589844 168.132812 171.773438 153.902344 189.207031 153.902344 C 206.644531 153.902344 220.824219 168.132812 220.824219 185.628906 C 220.824219 203.121094 206.644531 217.351562 189.207031 217.351562 Z M 189.207031 217.351562 " fill-opacity="1" fill-rule="nonzero"/><g clip-path="url(#7b6399a81c)"><path fill="#00e676" d="M 272.703125 136.703125 C 275.03125 138.894531 274.988281 142.191406 274.988281 144.789062 C 274.988281 161.988281 274.84375 210.90625 275.027344 228.105469 C 275.046875 229.898438 274.453125 231.789062 273.570312 233.214844 L 187.371094 185.628906 Z M 272.703125 136.703125 " fill-opacity="1" fill-rule="nonzero"/></g><path fill="#ffffff" d="M 234.375 167.5 L 238.894531 167.5 L 238.894531 203.753906 L 234.375 203.753906 Z M 247.925781 167.5 L 252.445312 167.5 L 252.445312 203.753906 L 247.925781 203.753906 Z M 247.925781 167.5 " fill-opacity="1" fill-rule="nonzero"/><path fill="#ffffff" d="M 225.34375 190.160156 L 261.476562 190.160156 L 261.476562 194.691406 L 225.34375 194.691406 Z M 225.34375 176.5625 L 261.476562 176.5625 L 261.476562 181.09375 L 225.34375 181.09375 Z M 225.34375 176.5625 " fill-opacity="1" fill-rule="nonzero"/></svg>