<svg xmlns="http://www.w3.org/2000/svg" xmlns:xlink="http://www.w3.org/1999/xlink" width="500" zoomAndPan="magnify" viewBox="0 0 375 374.999991" height="500" preserveAspectRatio="xMidYMid meet" version="1.0"><defs><clipPath id="dd0df581a3"><path d="M 97.640625 97.640625 L 277.640625 97.640625 L 277.640625 277.640625 L 97.640625 277.640625 Z M 97.640625 97.640625 " clip-rule="nonzero"/></clipPath></defs><g clip-path="url(#dd0df581a3)"><path fill="#dd4814" d="M 277.640625 187.640625 C 277.640625 237.339844 237.339844 277.640625 187.640625 277.640625 C 137.9375 277.640625 97.640625 237.339844 97.640625 187.640625 C 97.640625 137.9375 137.9375 97.640625 187.640625 97.640625 C 237.339844 97.640625 277.640625 137.9375 277.640625 187.640625 Z M 277.640625 187.640625 " fill-opacity="1" fill-rule="nonzero"/></g><path fill="#ffffff" d="M 126.4375 175.625 C 119.800781 175.625 114.417969 181 114.417969 187.644531 C 114.417969 194.289062 119.796875 199.660156 126.4375 199.660156 C 133.082031 199.660156 138.460938 194.277344 138.460938 187.640625 C 138.460938 181 133.078125 175.625 126.4375 175.625 Z M 212.230469 230.242188 C 206.484375 233.617188 204.515625 240.90625 207.832031 246.652344 C 211.152344 252.394531 218.492188 254.367188 224.242188 251.050781 C 229.988281 247.730469 231.957031 240.390625 228.640625 234.640625 C 225.320312 228.894531 217.976562 226.933594 212.230469 230.242188 Z M 152.539062 187.640625 C 152.539062 186.234375 152.621094 184.835938 152.789062 183.445312 C 152.957031 182.050781 153.203125 180.671875 153.539062 179.308594 C 153.871094 177.945312 154.28125 176.605469 154.777344 175.292969 C 155.269531 173.980469 155.839844 172.699219 156.488281 171.457031 C 157.132812 170.210938 157.855469 169.007812 158.644531 167.847656 C 159.4375 166.691406 160.292969 165.582031 161.21875 164.527344 C 162.144531 163.472656 163.128906 162.476562 164.171875 161.539062 C 165.214844 160.601562 166.3125 159.730469 167.460938 158.921875 L 158.679688 144.214844 C 156.035156 145.980469 153.570312 147.972656 151.289062 150.1875 C 149.003906 152.402344 146.941406 154.804688 145.097656 157.398438 C 143.25 159.992188 141.65625 162.730469 140.3125 165.613281 C 138.96875 168.496094 137.894531 171.476562 137.09375 174.554688 C 140.894531 177.648438 143.3125 182.351562 143.3125 187.640625 C 143.3125 192.925781 140.882812 197.628906 137.09375 200.722656 C 140.339844 213.304688 148.164062 224.042969 158.679688 231.070312 L 167.46875 216.355469 C 166.320312 215.550781 165.222656 214.675781 164.179688 213.738281 C 163.132812 212.800781 162.148438 211.804688 161.226562 210.75 C 160.300781 209.695312 159.441406 208.585938 158.652344 207.429688 C 157.859375 206.269531 157.140625 205.066406 156.492188 203.824219 C 155.847656 202.578125 155.277344 201.296875 154.78125 199.984375 C 154.289062 198.671875 153.875 197.332031 153.542969 195.96875 C 153.210938 194.605469 152.960938 193.226562 152.792969 191.832031 C 152.625 190.441406 152.542969 189.042969 152.542969 187.640625 Z M 187.640625 152.539062 C 188.722656 152.539062 189.804688 152.589844 190.886719 152.691406 C 191.964844 152.789062 193.039062 152.941406 194.105469 153.140625 C 195.171875 153.339844 196.222656 153.589844 197.265625 153.886719 C 198.308594 154.183594 199.335938 154.527344 200.347656 154.921875 C 201.359375 155.3125 202.347656 155.753906 203.320312 156.238281 C 204.289062 156.722656 205.234375 157.25 206.15625 157.824219 C 207.078125 158.394531 207.96875 159.007812 208.835938 159.664062 C 209.699219 160.316406 210.53125 161.011719 211.332031 161.742188 C 212.132812 162.476562 212.894531 163.242188 213.625 164.046875 C 214.355469 164.847656 215.042969 165.683594 215.695312 166.550781 C 216.347656 167.417969 216.957031 168.3125 217.527344 169.238281 C 218.09375 170.160156 218.617188 171.109375 219.101562 172.082031 C 219.582031 173.050781 220.015625 174.042969 220.402344 175.058594 C 220.792969 176.070312 221.132812 177.097656 221.425781 178.140625 C 221.71875 179.1875 221.964844 180.242188 222.160156 181.308594 C 222.355469 182.375 222.503906 183.449219 222.597656 184.527344 L 239.722656 184.273438 C 239.519531 181.097656 239.03125 177.96875 238.253906 174.882812 C 237.476562 171.796875 236.425781 168.804688 235.097656 165.910156 C 233.773438 163.019531 232.195312 160.269531 230.367188 157.664062 C 228.539062 155.0625 226.484375 152.644531 224.210938 150.417969 C 219.644531 152.144531 214.367188 151.882812 209.8125 149.25 C 208.726562 148.625 207.726562 147.886719 206.804688 147.039062 C 205.882812 146.191406 205.066406 145.25 204.355469 144.21875 C 203.644531 143.191406 203.058594 142.09375 202.589844 140.933594 C 202.125 139.769531 201.792969 138.570312 201.59375 137.335938 C 197.203125 136.113281 192.476562 135.4375 187.640625 135.4375 C 179.332031 135.4375 171.476562 137.390625 164.503906 140.839844 L 172.851562 155.800781 C 177.351562 153.710938 182.355469 152.539062 187.632812 152.539062 Z M 187.640625 222.738281 C 182.351562 222.738281 177.34375 221.558594 172.855469 219.476562 L 164.507812 234.4375 C 171.484375 237.894531 179.335938 239.839844 187.644531 239.839844 C 192.378906 239.835938 197.027344 239.203125 201.589844 237.9375 C 202.375 233.113281 205.246094 228.667969 209.800781 226.023438 C 214.359375 223.378906 219.644531 223.132812 224.203125 224.859375 C 226.472656 222.632812 228.527344 220.214844 230.355469 217.613281 C 232.183594 215.007812 233.761719 212.257812 235.089844 209.367188 C 236.414062 206.472656 237.464844 203.484375 238.242188 200.394531 C 239.019531 197.308594 239.507812 194.179688 239.710938 191.003906 L 222.582031 190.75 C 222.484375 191.828125 222.339844 192.902344 222.144531 193.96875 C 221.949219 195.035156 221.703125 196.089844 221.410156 197.132812 C 221.117188 198.175781 220.777344 199.207031 220.386719 200.21875 C 220 201.230469 219.566406 202.222656 219.085938 203.195312 C 218.605469 204.164062 218.078125 205.113281 217.511719 206.035156 C 216.945312 206.960938 216.332031 207.855469 215.683594 208.722656 C 215.03125 209.589844 214.339844 210.421875 213.613281 211.226562 C 212.882812 212.027344 212.121094 212.796875 211.320312 213.527344 C 210.519531 214.261719 209.691406 214.953125 208.824219 215.609375 C 207.960938 216.265625 207.070312 216.878906 206.148438 217.449219 C 205.226562 218.023438 204.28125 218.550781 203.3125 219.035156 C 202.34375 219.519531 201.351562 219.957031 200.34375 220.351562 C 199.332031 220.746094 198.304688 221.089844 197.261719 221.386719 C 196.222656 221.6875 195.167969 221.933594 194.101562 222.136719 C 193.035156 222.335938 191.964844 222.484375 190.882812 222.585938 C 189.804688 222.6875 188.722656 222.738281 187.640625 222.738281 Z M 212.230469 145.039062 C 217.980469 148.414062 225.328125 146.390625 228.640625 140.652344 C 231.953125 134.914062 229.988281 127.558594 224.253906 124.238281 C 218.515625 120.921875 211.15625 122.890625 207.839844 128.644531 C 204.519531 134.398438 206.488281 141.734375 212.238281 145.050781 Z M 212.230469 145.039062 " fill-opacity="1" fill-rule="nonzero"/></svg>