<svg xmlns="http://www.w3.org/2000/svg" xmlns:xlink="http://www.w3.org/1999/xlink" width="500" zoomAndPan="magnify" viewBox="0 0 375 374.999991" height="500" preserveAspectRatio="xMidYMid meet" version="1.0"><defs><clipPath id="6c14858e06"><path d="M 95.714844 95.714844 L 279.464844 95.714844 L 279.464844 279.464844 L 95.714844 279.464844 Z M 95.714844 95.714844 " clip-rule="nonzero"/></clipPath></defs><g clip-path="url(#6c14858e06)"><path fill="#ffe6e2" d="M 245.011719 279.464844 L 130.167969 279.464844 C 111.140625 279.464844 95.714844 264.042969 95.714844 245.011719 L 95.714844 130.167969 C 95.714844 111.140625 111.140625 95.714844 130.167969 95.714844 L 245.011719 95.714844 C 264.042969 95.714844 279.464844 111.140625 279.464844 130.167969 L 279.464844 245.011719 C 279.464844 264.042969 264.042969 279.464844 245.011719 279.464844 Z M 245.011719 279.464844 " fill-opacity="1" fill-rule="nonzero"/></g><path fill="#fd907e" d="M 141.652344 202.171875 C 141.652344 202.183594 141.652344 202.195312 141.652344 202.207031 C 141.652344 202.917969 141.941406 203.566406 142.40625 204.039062 C 142.859375 204.515625 143.496094 204.816406 144.203125 204.816406 C 144.214844 204.816406 144.226562 204.816406 144.242188 204.816406 L 144.25 204.816406 C 144.253906 204.816406 144.253906 204.816406 144.261719 204.816406 C 144.980469 204.816406 145.621094 204.519531 146.082031 204.039062 C 146.558594 203.570312 146.855469 202.917969 146.855469 202.195312 C 146.855469 202.1875 146.855469 202.175781 146.855469 202.164062 C 146.855469 202.160156 146.855469 202.160156 146.855469 202.160156 C 146.855469 201.429688 146.5625 200.777344 146.085938 200.304688 C 145.628906 199.8125 144.980469 199.507812 144.253906 199.507812 C 144.25 199.507812 144.25 199.507812 144.25 199.507812 C 144.238281 199.507812 144.222656 199.507812 144.203125 199.507812 C 144.191406 199.507812 144.175781 199.507812 144.164062 199.507812 L 144.152344 199.507812 C 143.457031 199.523438 142.84375 199.828125 142.40625 200.304688 C 141.941406 200.777344 141.652344 201.429688 141.652344 202.148438 C 141.652344 202.160156 141.652344 202.160156 141.652344 202.171875 Z M 141.652344 202.171875 " fill-opacity="1" fill-rule="nonzero"/><path fill="#fd907e" d="M 206.410156 173.972656 L 206.410156 170.371094 L 189.433594 170.371094 L 189.433594 204.351562 L 207.234375 204.351562 L 207.253906 200.621094 L 193.4375 200.621094 L 193.4375 188.84375 L 205.53125 188.84375 L 205.53125 185.265625 L 193.4375 185.265625 L 193.4375 173.972656 Z M 206.410156 173.972656 " fill-opacity="1" fill-rule="nonzero"/><path fill="#fd907e" d="M 158.742188 177.289062 L 158.738281 177.289062 L 158.714844 177.25 Z M 158.742188 177.289062 " fill-opacity="1" fill-rule="nonzero"/><path fill="#fc573b" d="M 233.527344 170.371094 L 210.25 170.371094 L 210.25 173.964844 L 219.878906 173.964844 L 219.878906 204.351562 L 223.789062 204.351562 L 223.789062 173.964844 L 233.527344 173.964844 Z M 233.527344 170.371094 " fill-opacity="1" fill-rule="nonzero"/><path fill="#fc573b" d="M 157.691406 179.78125 C 157.699219 179.511719 157.703125 179.183594 157.703125 178.863281 C 157.703125 177.542969 157.628906 176.238281 157.492188 174.957031 L 157.507812 175.121094 L 157.652344 175.121094 C 157.960938 175.933594 158.324219 176.636719 158.742188 177.285156 L 175.933594 204.339844 L 180.746094 204.339844 L 180.746094 170.363281 L 176.835938 170.363281 L 176.835938 194.265625 C 176.832031 194.492188 176.832031 194.761719 176.832031 195.039062 C 176.832031 196.527344 176.917969 197.996094 177.089844 199.4375 L 177.070312 199.265625 L 176.984375 199.265625 C 176.777344 198.851562 176.324219 198.101562 175.625 196.992188 L 158.871094 170.371094 L 153.78125 170.371094 L 153.78125 204.351562 L 157.699219 204.351562 L 157.699219 179.78125 Z M 157.691406 179.78125 " fill-opacity="1" fill-rule="nonzero"/></svg>