<svg xmlns="http://www.w3.org/2000/svg" xmlns:xlink="http://www.w3.org/1999/xlink" width="500" zoomAndPan="magnify" viewBox="0 0 375 374.999991" height="500" preserveAspectRatio="xMidYMid meet" version="1.0"><defs><clipPath id="7eb66cfde3"><path d="M 97.46875 85 L 277.46875 85 L 277.46875 290 L 97.46875 290 Z M 97.46875 85 " clip-rule="nonzero"/></clipPath></defs><g clip-path="url(#7eb66cfde3)"><path fill="#e44d26" d="M 113.808594 269.269531 L 97.414062 85.34375 L 277.519531 85.34375 L 261.113281 269.246094 L 187.351562 289.695312 Z M 113.808594 269.269531 " fill-opacity="1" fill-rule="nonzero"/></g><path fill="#f16529" d="M 247.066406 257.53125 L 261.089844 100.382812 L 187.46875 100.382812 L 187.46875 274.066406 Z M 247.066406 257.53125 " fill-opacity="1" fill-rule="nonzero"/><path fill="#ebebeb" d="M 187.390625 122.9375 L 130.925781 122.9375 L 137.007812 191.15625 L 187.46875 191.15625 L 187.46875 168.597656 L 157.632812 168.597656 L 155.570312 145.5 L 187.46875 145.5 L 187.46875 122.9375 Z M 187.46875 227.109375 L 187.371094 227.136719 L 162.261719 220.351562 L 160.664062 202.363281 L 138.019531 202.363281 L 141.175781 237.78125 L 187.363281 250.554688 L 187.46875 250.519531 Z M 187.46875 227.109375 " fill-opacity="1" fill-rule="nonzero"/><path fill="#ffffff" d="M 187.390625 191.15625 L 215.15625 191.15625 L 212.601562 220.402344 L 187.453125 227.191406 L 187.453125 250.660156 L 233.679688 237.84375 L 239.871094 168.585938 L 187.46875 168.585938 Z M 243.332031 128.992188 L 243.867188 122.9375 L 187.378906 122.9375 L 187.378906 145.496094 L 241.835938 145.496094 L 242.285156 140.421875 Z M 243.332031 128.992188 " fill-opacity="1" fill-rule="nonzero"/></svg>