<svg xmlns="http://www.w3.org/2000/svg" xmlns:xlink="http://www.w3.org/1999/xlink" width="500" zoomAndPan="magnify" viewBox="0 0 375 374.999991" height="500" preserveAspectRatio="xMidYMid meet" version="1.0"><defs><clipPath id="9732c7cef2"><path d="M 98.304688 85.292969 L 289.554688 85.292969 L 289.554688 276.542969 L 98.304688 276.542969 Z M 98.304688 85.292969 " clip-rule="nonzero"/></clipPath></defs><g clip-path="url(#9732c7cef2)"><path fill="#f03c2e" d="M 285.945312 172.398438 L 202.445312 88.902344 C 201.875 88.328125 201.253906 87.820312 200.582031 87.371094 C 199.90625 86.921875 199.199219 86.539062 198.449219 86.230469 C 197.703125 85.921875 196.933594 85.6875 196.140625 85.53125 C 195.347656 85.371094 194.546875 85.292969 193.738281 85.292969 C 192.929688 85.292969 192.128906 85.371094 191.335938 85.53125 C 190.542969 85.6875 189.773438 85.921875 189.023438 86.230469 C 188.277344 86.539062 187.570312 86.921875 186.894531 87.371094 C 186.222656 87.820312 185.601562 88.328125 185.03125 88.902344 L 167.699219 106.234375 L 189.691406 128.226562 C 194.808594 126.433594 200.664062 127.660156 204.742188 131.734375 C 205.710938 132.707031 206.527344 133.792969 207.191406 134.996094 C 207.855469 136.199219 208.34375 137.46875 208.648438 138.804688 C 208.957031 140.144531 209.074219 141.5 209 142.871094 C 208.925781 144.242188 208.664062 145.578125 208.214844 146.875 L 229.414062 168.074219 C 234.539062 166.304688 240.457031 167.445312 244.550781 171.550781 C 245.230469 172.230469 245.839844 172.972656 246.375 173.773438 C 246.910156 174.574219 247.363281 175.417969 247.730469 176.308594 C 248.097656 177.195312 248.378906 178.113281 248.566406 179.058594 C 248.753906 180.003906 248.847656 180.957031 248.847656 181.917969 C 248.847656 182.882812 248.753906 183.835938 248.566406 184.777344 C 248.378906 185.722656 248.101562 186.640625 247.730469 187.53125 C 247.363281 188.417969 246.910156 189.265625 246.375 190.066406 C 245.839844 190.863281 245.234375 191.605469 244.554688 192.285156 C 243.871094 192.96875 243.132812 193.574219 242.332031 194.109375 C 241.53125 194.644531 240.683594 195.09375 239.796875 195.464844 C 238.90625 195.832031 237.988281 196.109375 237.042969 196.296875 C 236.101562 196.484375 235.148438 196.578125 234.183594 196.578125 C 233.222656 196.578125 232.269531 196.484375 231.324219 196.296875 C 230.378906 196.105469 229.460938 195.828125 228.574219 195.460938 C 227.683594 195.089844 226.839844 194.636719 226.039062 194.101562 C 225.238281 193.566406 224.5 192.960938 223.816406 192.277344 C 219.515625 187.976562 218.453125 181.640625 220.625 176.339844 L 200.855469 156.566406 L 200.855469 208.59375 C 202.300781 209.308594 203.59375 210.234375 204.742188 211.367188 C 205.421875 212.046875 206.027344 212.789062 206.5625 213.589844 C 207.097656 214.386719 207.550781 215.234375 207.917969 216.121094 C 208.285156 217.011719 208.5625 217.925781 208.753906 218.871094 C 208.941406 219.816406 209.035156 220.769531 209.035156 221.730469 C 209.035156 222.691406 208.941406 223.644531 208.753906 224.589844 C 208.5625 225.535156 208.285156 226.449219 207.917969 227.339844 C 207.550781 228.226562 207.097656 229.074219 206.5625 229.875 C 206.027344 230.671875 205.421875 231.414062 204.742188 232.09375 C 204.0625 232.773438 203.320312 233.382812 202.519531 233.917969 C 201.71875 234.453125 200.875 234.902344 199.984375 235.269531 C 199.097656 235.640625 198.179688 235.917969 197.238281 236.105469 C 196.292969 236.292969 195.339844 236.386719 194.378906 236.386719 C 193.414062 236.386719 192.460938 236.292969 191.519531 236.105469 C 190.574219 235.917969 189.65625 235.640625 188.769531 235.269531 C 187.878906 234.902344 187.035156 234.453125 186.234375 233.917969 C 185.433594 233.382812 184.695312 232.773438 184.015625 232.09375 C 183.332031 231.414062 182.726562 230.675781 182.1875 229.875 C 181.652344 229.074219 181.203125 228.230469 180.832031 227.339844 C 180.464844 226.453125 180.1875 225.535156 180 224.589844 C 179.808594 223.648438 179.714844 222.691406 179.714844 221.730469 C 179.714844 220.769531 179.808594 219.816406 180 218.871094 C 180.1875 217.925781 180.464844 217.011719 180.832031 216.121094 C 181.203125 215.230469 181.652344 214.386719 182.1875 213.585938 C 182.726562 212.789062 183.332031 212.046875 184.015625 211.367188 C 185.429688 209.957031 187.003906 208.886719 188.8125 208.167969 L 188.8125 155.660156 C 187.066406 154.941406 185.429688 153.882812 184.015625 152.460938 C 183.503906 151.953125 183.03125 151.40625 182.601562 150.824219 C 182.167969 150.242188 181.785156 149.632812 181.445312 148.996094 C 181.101562 148.359375 180.8125 147.699219 180.570312 147.015625 C 180.328125 146.335938 180.136719 145.640625 179.996094 144.929688 C 179.855469 144.222656 179.769531 143.507812 179.734375 142.785156 C 179.703125 142.0625 179.722656 141.339844 179.792969 140.621094 C 179.867188 139.902344 179.992188 139.191406 180.171875 138.492188 C 180.351562 137.789062 180.578125 137.105469 180.859375 136.4375 L 159.164062 114.757812 L 101.910156 171.953125 C 101.335938 172.523438 100.824219 173.144531 100.375 173.816406 C 99.925781 174.492188 99.546875 175.199219 99.234375 175.949219 C 98.925781 176.695312 98.691406 177.464844 98.535156 178.257812 C 98.375 179.050781 98.296875 179.855469 98.296875 180.664062 C 98.296875 181.472656 98.375 182.273438 98.535156 183.066406 C 98.691406 183.859375 98.925781 184.628906 99.234375 185.378906 C 99.546875 186.125 99.925781 186.835938 100.375 187.507812 C 100.824219 188.179688 101.335938 188.800781 101.910156 189.375 L 185.414062 272.867188 C 185.984375 273.4375 186.605469 273.949219 187.277344 274.398438 C 187.949219 274.847656 188.660156 275.226562 189.40625 275.535156 C 190.15625 275.847656 190.925781 276.078125 191.71875 276.238281 C 192.511719 276.394531 193.3125 276.472656 194.121094 276.472656 C 194.929688 276.472656 195.730469 276.394531 196.523438 276.238281 C 197.316406 276.078125 198.085938 275.847656 198.832031 275.535156 C 199.582031 275.226562 200.289062 274.847656 200.960938 274.398438 C 201.636719 273.949219 202.257812 273.4375 202.828125 272.867188 L 285.945312 189.882812 C 286.515625 189.308594 287.027344 188.6875 287.476562 188.015625 C 287.925781 187.34375 288.308594 186.632812 288.617188 185.886719 C 288.925781 185.136719 289.160156 184.367188 289.320312 183.574219 C 289.476562 182.78125 289.554688 181.980469 289.554688 181.171875 C 289.554688 180.363281 289.476562 179.558594 289.320312 178.765625 C 289.160156 177.972656 288.925781 177.203125 288.617188 176.457031 C 288.308594 175.707031 287.925781 175 287.476562 174.328125 C 287.027344 173.652344 286.515625 173.03125 285.945312 172.460938 " fill-opacity="1" fill-rule="nonzero"/></g></svg>