<svg xmlns="http://www.w3.org/2000/svg" xmlns:xlink="http://www.w3.org/1999/xlink" width="500" zoomAndPan="magnify" viewBox="0 0 375 374.999991" height="500" preserveAspectRatio="xMidYMid meet" version="1.0"><defs><clipPath id="85a6650e4e"><path d="M 95.640625 90 L 279.390625 90 L 279.390625 285 L 95.640625 285 Z M 95.640625 90 " clip-rule="nonzero"/></clipPath><clipPath id="629291a1f7"><path d="M 186 90 L 279.390625 90 L 279.390625 285 L 186 285 Z M 186 90 " clip-rule="nonzero"/></clipPath></defs><g clip-path="url(#85a6650e4e)"><path fill="#e23237" d="M 95.640625 122.394531 L 186.25 90.164062 L 279.246094 121.894531 L 264.214844 241.65625 L 186.25 284.761719 L 109.550781 242.214844 Z M 95.640625 122.394531 " fill-opacity="1" fill-rule="nonzero"/></g><g clip-path="url(#629291a1f7)"><path fill="#b52e31" d="M 279.246094 121.894531 L 186.25 90.164062 L 186.25 284.761719 L 264.214844 241.65625 Z M 279.246094 121.894531 " fill-opacity="1" fill-rule="nonzero"/></g><path fill="#ffffff" d="M 186.390625 112.910156 L 129.925781 238.421875 L 150.996094 237.996094 L 162.375 209.632812 L 212.875 209.632812 L 225.238281 238.214844 L 245.328125 238.640625 Z M 186.53125 153.203125 L 205.632812 193.074219 L 169.871094 193.074219 L 186.585938 153.203125 Z M 186.53125 153.203125 " fill-opacity="1" fill-rule="nonzero"/></svg>