<svg xmlns="http://www.w3.org/2000/svg" xmlns:xlink="http://www.w3.org/1999/xlink" width="500" zoomAndPan="magnify" viewBox="0 0 375 374.999991" height="500" preserveAspectRatio="xMidYMid meet" version="1.0"><defs><clipPath id="c405674f09"><path d="M 113 131.617188 L 286 131.617188 L 286 243.367188 L 113 243.367188 Z M 113 131.617188 " clip-rule="nonzero"/></clipPath><clipPath id="454dc0ce0b"><path d="M 184 134 L 200 134 L 200 151 L 184 151 Z M 184 134 " clip-rule="nonzero"/></clipPath><clipPath id="f1d3ddedbe"><path d="M 147.742188 133.34375 L 147.742188 168.78125 L 130.808594 168.78125 L 130.808594 186.496094 L 116.628906 186.496094 L 116.472656 188.039062 C 115.585938 197.691406 117.269531 206.59375 121.136719 214.207031 L 122.4375 216.542969 C 123.207031 217.941406 124.128906 219.253906 125.082031 220.539062 C 126.035156 221.820312 126.382812 222.527344 126.984375 223.378906 C 137.210938 234.871094 152.460938 240.417969 170.066406 240.417969 C 209.050781 240.417969 242.140625 223.132812 256.785156 184.304688 C 267.167969 185.371094 277.136719 182.703125 281.679688 173.832031 C 274.441406 169.652344 265.144531 170.992188 259.789062 173.6875 L 273.984375 133.339844 L 218.5625 168.777344 L 200.859375 168.777344 L 200.859375 133.339844 Z M 147.742188 133.34375 " clip-rule="nonzero"/></clipPath><clipPath id="96c5a18643"><path d="M 186 136 L 198 136 L 198 149 L 186 149 Z M 186 136 " clip-rule="nonzero"/></clipPath><clipPath id="2292d677e8"><path d="M 147.742188 133.34375 L 147.742188 168.78125 L 130.808594 168.78125 L 130.808594 186.496094 L 116.628906 186.496094 L 116.472656 188.039062 C 115.585938 197.691406 117.269531 206.59375 121.136719 214.207031 L 122.4375 216.542969 C 123.207031 217.941406 124.128906 219.253906 125.082031 220.539062 C 126.035156 221.820312 126.382812 222.527344 126.984375 223.378906 C 137.210938 234.871094 152.460938 240.417969 170.066406 240.417969 C 209.050781 240.417969 242.140625 223.132812 256.785156 184.304688 C 267.167969 185.371094 277.136719 182.703125 281.679688 173.832031 C 274.441406 169.652344 265.144531 170.992188 259.789062 173.6875 L 273.984375 133.339844 L 218.5625 168.777344 L 200.859375 168.777344 L 200.859375 133.339844 Z M 147.742188 133.34375 " clip-rule="nonzero"/></clipPath><clipPath id="1d60bccd9b"><path d="M 185 135 L 199 135 L 199 150 L 185 150 Z M 185 135 " clip-rule="nonzero"/></clipPath><clipPath id="af54c52e0f"><path d="M 147.742188 133.34375 L 147.742188 168.78125 L 130.808594 168.78125 L 130.808594 186.496094 L 116.628906 186.496094 L 116.472656 188.039062 C 115.585938 197.691406 117.269531 206.59375 121.136719 214.207031 L 122.4375 216.542969 C 123.207031 217.941406 124.128906 219.253906 125.082031 220.539062 C 126.035156 221.820312 126.382812 222.527344 126.984375 223.378906 C 137.210938 234.871094 152.460938 240.417969 170.066406 240.417969 C 209.050781 240.417969 242.140625 223.132812 256.785156 184.304688 C 267.167969 185.371094 277.136719 182.703125 281.679688 173.832031 C 274.441406 169.652344 265.144531 170.992188 259.789062 173.6875 L 273.984375 133.339844 L 218.5625 168.777344 L 200.859375 168.777344 L 200.859375 133.339844 Z M 147.742188 133.34375 " clip-rule="nonzero"/></clipPath><clipPath id="7f307428b1"><path d="M 202 134 L 218 134 L 218 151 L 202 151 Z M 202 134 " clip-rule="nonzero"/></clipPath><clipPath id="16ab78d023"><path d="M 147.742188 133.34375 L 147.742188 168.78125 L 130.808594 168.78125 L 130.808594 186.496094 L 116.628906 186.496094 L 116.472656 188.039062 C 115.585938 197.691406 117.269531 206.59375 121.136719 214.207031 L 122.4375 216.542969 C 123.207031 217.941406 124.128906 219.253906 125.082031 220.539062 C 126.035156 221.820312 126.382812 222.527344 126.984375 223.378906 C 137.210938 234.871094 152.460938 240.417969 170.066406 240.417969 C 209.050781 240.417969 242.140625 223.132812 256.785156 184.304688 C 267.167969 185.371094 277.136719 182.703125 281.679688 173.832031 C 274.441406 169.652344 265.144531 170.992188 259.789062 173.6875 L 273.984375 133.339844 L 218.5625 168.777344 L 200.859375 168.777344 L 200.859375 133.339844 Z M 147.742188 133.34375 " clip-rule="nonzero"/></clipPath><clipPath id="05d2bf2417"><path d="M 204 136 L 216 136 L 216 149 L 204 149 Z M 204 136 " clip-rule="nonzero"/></clipPath><clipPath id="5c8e2fcc8e"><path d="M 147.742188 133.34375 L 147.742188 168.78125 L 130.808594 168.78125 L 130.808594 186.496094 L 116.628906 186.496094 L 116.472656 188.039062 C 115.585938 197.691406 117.269531 206.59375 121.136719 214.207031 L 122.4375 216.542969 C 123.207031 217.941406 124.128906 219.253906 125.082031 220.539062 C 126.035156 221.820312 126.382812 222.527344 126.984375 223.378906 C 137.210938 234.871094 152.460938 240.417969 170.066406 240.417969 C 209.050781 240.417969 242.140625 223.132812 256.785156 184.304688 C 267.167969 185.371094 277.136719 182.703125 281.679688 173.832031 C 274.441406 169.652344 265.144531 170.992188 259.789062 173.6875 L 273.984375 133.339844 L 218.5625 168.777344 L 200.859375 168.777344 L 200.859375 133.339844 Z M 147.742188 133.34375 " clip-rule="nonzero"/></clipPath><clipPath id="8b62271de3"><path d="M 203 135 L 217 135 L 217 150 L 203 150 Z M 203 135 " clip-rule="nonzero"/></clipPath><clipPath id="29f51117d0"><path d="M 147.742188 133.34375 L 147.742188 168.78125 L 130.808594 168.78125 L 130.808594 186.496094 L 116.628906 186.496094 L 116.472656 188.039062 C 115.585938 197.691406 117.269531 206.59375 121.136719 214.207031 L 122.4375 216.542969 C 123.207031 217.941406 124.128906 219.253906 125.082031 220.539062 C 126.035156 221.820312 126.382812 222.527344 126.984375 223.378906 C 137.210938 234.871094 152.460938 240.417969 170.066406 240.417969 C 209.050781 240.417969 242.140625 223.132812 256.785156 184.304688 C 267.167969 185.371094 277.136719 182.703125 281.679688 173.832031 C 274.441406 169.652344 265.144531 170.992188 259.789062 173.6875 L 273.984375 133.339844 L 218.5625 168.777344 L 200.859375 168.777344 L 200.859375 133.339844 Z M 147.742188 133.34375 " clip-rule="nonzero"/></clipPath><clipPath id="468a713ab3"><path d="M 116.183594 152 L 130 152 L 130 168 L 116.183594 168 Z M 116.183594 152 " clip-rule="nonzero"/></clipPath><clipPath id="cdeaefcc4a"><path d="M 147.742188 133.34375 L 147.742188 168.78125 L 130.808594 168.78125 L 130.808594 186.496094 L 116.628906 186.496094 L 116.472656 188.039062 C 115.585938 197.691406 117.269531 206.59375 121.136719 214.207031 L 122.4375 216.542969 C 123.207031 217.941406 124.128906 219.253906 125.082031 220.539062 C 126.035156 221.820312 126.382812 222.527344 126.984375 223.378906 C 137.210938 234.871094 152.460938 240.417969 170.066406 240.417969 C 209.050781 240.417969 242.140625 223.132812 256.785156 184.304688 C 267.167969 185.371094 277.136719 182.703125 281.679688 173.832031 C 274.441406 169.652344 265.144531 170.992188 259.789062 173.6875 L 273.984375 133.339844 L 218.5625 168.777344 L 200.859375 168.777344 L 200.859375 133.339844 Z M 147.742188 133.34375 " clip-rule="nonzero"/></clipPath><clipPath id="9331b870fb"><path d="M 116.183594 169 L 130 169 L 130 186 L 116.183594 186 Z M 116.183594 169 " clip-rule="nonzero"/></clipPath><clipPath id="e48b2f9083"><path d="M 147.742188 133.34375 L 147.742188 168.78125 L 130.808594 168.78125 L 130.808594 186.496094 L 116.628906 186.496094 L 116.472656 188.039062 C 115.585938 197.691406 117.269531 206.59375 121.136719 214.207031 L 122.4375 216.542969 C 123.207031 217.941406 124.128906 219.253906 125.082031 220.539062 C 126.035156 221.820312 126.382812 222.527344 126.984375 223.378906 C 137.210938 234.871094 152.460938 240.417969 170.066406 240.417969 C 209.050781 240.417969 242.140625 223.132812 256.785156 184.304688 C 267.167969 185.371094 277.136719 182.703125 281.679688 173.832031 C 274.441406 169.652344 265.144531 170.992188 259.789062 173.6875 L 273.984375 133.339844 L 218.5625 168.777344 L 200.859375 168.777344 L 200.859375 133.339844 Z M 147.742188 133.34375 " clip-rule="nonzero"/></clipPath><clipPath id="efd0c38738"><path d="M 116.183594 153 L 128 153 L 128 167 L 116.183594 167 Z M 116.183594 153 " clip-rule="nonzero"/></clipPath><clipPath id="f6f651f73e"><path d="M 147.742188 133.34375 L 147.742188 168.78125 L 130.808594 168.78125 L 130.808594 186.496094 L 116.628906 186.496094 L 116.472656 188.039062 C 115.585938 197.691406 117.269531 206.59375 121.136719 214.207031 L 122.4375 216.542969 C 123.207031 217.941406 124.128906 219.253906 125.082031 220.539062 C 126.035156 221.820312 126.382812 222.527344 126.984375 223.378906 C 137.210938 234.871094 152.460938 240.417969 170.066406 240.417969 C 209.050781 240.417969 242.140625 223.132812 256.785156 184.304688 C 267.167969 185.371094 277.136719 182.703125 281.679688 173.832031 C 274.441406 169.652344 265.144531 170.992188 259.789062 173.6875 L 273.984375 133.339844 L 218.5625 168.777344 L 200.859375 168.777344 L 200.859375 133.339844 Z M 147.742188 133.34375 " clip-rule="nonzero"/></clipPath><clipPath id="dba0c860dd"><path d="M 116.183594 153 L 129 153 L 129 167 L 116.183594 167 Z M 116.183594 153 " clip-rule="nonzero"/></clipPath><clipPath id="2c9627b0d7"><path d="M 147.742188 133.34375 L 147.742188 168.78125 L 130.808594 168.78125 L 130.808594 186.496094 L 116.628906 186.496094 L 116.472656 188.039062 C 115.585938 197.691406 117.269531 206.59375 121.136719 214.207031 L 122.4375 216.542969 C 123.207031 217.941406 124.128906 219.253906 125.082031 220.539062 C 126.035156 221.820312 126.382812 222.527344 126.984375 223.378906 C 137.210938 234.871094 152.460938 240.417969 170.066406 240.417969 C 209.050781 240.417969 242.140625 223.132812 256.785156 184.304688 C 267.167969 185.371094 277.136719 182.703125 281.679688 173.832031 C 274.441406 169.652344 265.144531 170.992188 259.789062 173.6875 L 273.984375 133.339844 L 218.5625 168.777344 L 200.859375 168.777344 L 200.859375 133.339844 Z M 147.742188 133.34375 " clip-rule="nonzero"/></clipPath><clipPath id="c0d8faed8c"><path d="M 116.183594 171 L 128 171 L 128 184 L 116.183594 184 Z M 116.183594 171 " clip-rule="nonzero"/></clipPath><clipPath id="6049e6b798"><path d="M 147.742188 133.34375 L 147.742188 168.78125 L 130.808594 168.78125 L 130.808594 186.496094 L 116.628906 186.496094 L 116.472656 188.039062 C 115.585938 197.691406 117.269531 206.59375 121.136719 214.207031 L 122.4375 216.542969 C 123.207031 217.941406 124.128906 219.253906 125.082031 220.539062 C 126.035156 221.820312 126.382812 222.527344 126.984375 223.378906 C 137.210938 234.871094 152.460938 240.417969 170.066406 240.417969 C 209.050781 240.417969 242.140625 223.132812 256.785156 184.304688 C 267.167969 185.371094 277.136719 182.703125 281.679688 173.832031 C 274.441406 169.652344 265.144531 170.992188 259.789062 173.6875 L 273.984375 133.339844 L 218.5625 168.777344 L 200.859375 168.777344 L 200.859375 133.339844 Z M 147.742188 133.34375 " clip-rule="nonzero"/></clipPath><clipPath id="8beae6319c"><path d="M 116.183594 170 L 129 170 L 129 185 L 116.183594 185 Z M 116.183594 170 " clip-rule="nonzero"/></clipPath><clipPath id="a24e6b0c82"><path d="M 147.742188 133.34375 L 147.742188 168.78125 L 130.808594 168.78125 L 130.808594 186.496094 L 116.628906 186.496094 L 116.472656 188.039062 C 115.585938 197.691406 117.269531 206.59375 121.136719 214.207031 L 122.4375 216.542969 C 123.207031 217.941406 124.128906 219.253906 125.082031 220.539062 C 126.035156 221.820312 126.382812 222.527344 126.984375 223.378906 C 137.210938 234.871094 152.460938 240.417969 170.066406 240.417969 C 209.050781 240.417969 242.140625 223.132812 256.785156 184.304688 C 267.167969 185.371094 277.136719 182.703125 281.679688 173.832031 C 274.441406 169.652344 265.144531 170.992188 259.789062 173.6875 L 273.984375 133.339844 L 218.5625 168.777344 L 200.859375 168.777344 L 200.859375 133.339844 Z M 147.742188 133.34375 " clip-rule="nonzero"/></clipPath><clipPath id="69ed7a3aa0"><path d="M 131 169 L 148 169 L 148 186 L 131 186 Z M 131 169 " clip-rule="nonzero"/></clipPath><clipPath id="2f722a814f"><path d="M 147.742188 133.34375 L 147.742188 168.78125 L 130.808594 168.78125 L 130.808594 186.496094 L 116.628906 186.496094 L 116.472656 188.039062 C 115.585938 197.691406 117.269531 206.59375 121.136719 214.207031 L 122.4375 216.542969 C 123.207031 217.941406 124.128906 219.253906 125.082031 220.539062 C 126.035156 221.820312 126.382812 222.527344 126.984375 223.378906 C 137.210938 234.871094 152.460938 240.417969 170.066406 240.417969 C 209.050781 240.417969 242.140625 223.132812 256.785156 184.304688 C 267.167969 185.371094 277.136719 182.703125 281.679688 173.832031 C 274.441406 169.652344 265.144531 170.992188 259.789062 173.6875 L 273.984375 133.339844 L 218.5625 168.777344 L 200.859375 168.777344 L 200.859375 133.339844 Z M 147.742188 133.34375 " clip-rule="nonzero"/></clipPath><clipPath id="27f807118d"><path d="M 131 152 L 148 152 L 148 168 L 131 168 Z M 131 152 " clip-rule="nonzero"/></clipPath><clipPath id="0c08a16aa2"><path d="M 147.742188 133.34375 L 147.742188 168.78125 L 130.808594 168.78125 L 130.808594 186.496094 L 116.628906 186.496094 L 116.472656 188.039062 C 115.585938 197.691406 117.269531 206.59375 121.136719 214.207031 L 122.4375 216.542969 C 123.207031 217.941406 124.128906 219.253906 125.082031 220.539062 C 126.035156 221.820312 126.382812 222.527344 126.984375 223.378906 C 137.210938 234.871094 152.460938 240.417969 170.066406 240.417969 C 209.050781 240.417969 242.140625 223.132812 256.785156 184.304688 C 267.167969 185.371094 277.136719 182.703125 281.679688 173.832031 C 274.441406 169.652344 265.144531 170.992188 259.789062 173.6875 L 273.984375 133.339844 L 218.5625 168.777344 L 200.859375 168.777344 L 200.859375 133.339844 Z M 147.742188 133.34375 " clip-rule="nonzero"/></clipPath><clipPath id="9e85e13971"><path d="M 133 171 L 146 171 L 146 184 L 133 184 Z M 133 171 " clip-rule="nonzero"/></clipPath><clipPath id="b42fccbcb9"><path d="M 147.742188 133.34375 L 147.742188 168.78125 L 130.808594 168.78125 L 130.808594 186.496094 L 116.628906 186.496094 L 116.472656 188.039062 C 115.585938 197.691406 117.269531 206.59375 121.136719 214.207031 L 122.4375 216.542969 C 123.207031 217.941406 124.128906 219.253906 125.082031 220.539062 C 126.035156 221.820312 126.382812 222.527344 126.984375 223.378906 C 137.210938 234.871094 152.460938 240.417969 170.066406 240.417969 C 209.050781 240.417969 242.140625 223.132812 256.785156 184.304688 C 267.167969 185.371094 277.136719 182.703125 281.679688 173.832031 C 274.441406 169.652344 265.144531 170.992188 259.789062 173.6875 L 273.984375 133.339844 L 218.5625 168.777344 L 200.859375 168.777344 L 200.859375 133.339844 Z M 147.742188 133.34375 " clip-rule="nonzero"/></clipPath><clipPath id="7fedf149eb"><path d="M 133 170 L 146 170 L 146 185 L 133 185 Z M 133 170 " clip-rule="nonzero"/></clipPath><clipPath id="a70e01373f"><path d="M 147.742188 133.34375 L 147.742188 168.78125 L 130.808594 168.78125 L 130.808594 186.496094 L 116.628906 186.496094 L 116.472656 188.039062 C 115.585938 197.691406 117.269531 206.59375 121.136719 214.207031 L 122.4375 216.542969 C 123.207031 217.941406 124.128906 219.253906 125.082031 220.539062 C 126.035156 221.820312 126.382812 222.527344 126.984375 223.378906 C 137.210938 234.871094 152.460938 240.417969 170.066406 240.417969 C 209.050781 240.417969 242.140625 223.132812 256.785156 184.304688 C 267.167969 185.371094 277.136719 182.703125 281.679688 173.832031 C 274.441406 169.652344 265.144531 170.992188 259.789062 173.6875 L 273.984375 133.339844 L 218.5625 168.777344 L 200.859375 168.777344 L 200.859375 133.339844 Z M 147.742188 133.34375 " clip-rule="nonzero"/></clipPath><clipPath id="aa0b8fe953"><path d="M 133 153 L 146 153 L 146 167 L 133 167 Z M 133 153 " clip-rule="nonzero"/></clipPath><clipPath id="1d71716bb5"><path d="M 147.742188 133.34375 L 147.742188 168.78125 L 130.808594 168.78125 L 130.808594 186.496094 L 116.628906 186.496094 L 116.472656 188.039062 C 115.585938 197.691406 117.269531 206.59375 121.136719 214.207031 L 122.4375 216.542969 C 123.207031 217.941406 124.128906 219.253906 125.082031 220.539062 C 126.035156 221.820312 126.382812 222.527344 126.984375 223.378906 C 137.210938 234.871094 152.460938 240.417969 170.066406 240.417969 C 209.050781 240.417969 242.140625 223.132812 256.785156 184.304688 C 267.167969 185.371094 277.136719 182.703125 281.679688 173.832031 C 274.441406 169.652344 265.144531 170.992188 259.789062 173.6875 L 273.984375 133.339844 L 218.5625 168.777344 L 200.859375 168.777344 L 200.859375 133.339844 Z M 147.742188 133.34375 " clip-rule="nonzero"/></clipPath><clipPath id="15aa896be7"><path d="M 149 152 L 165 152 L 165 168 L 149 168 Z M 149 152 " clip-rule="nonzero"/></clipPath><clipPath id="d674c0d0a6"><path d="M 147.742188 133.34375 L 147.742188 168.78125 L 130.808594 168.78125 L 130.808594 186.496094 L 116.628906 186.496094 L 116.472656 188.039062 C 115.585938 197.691406 117.269531 206.59375 121.136719 214.207031 L 122.4375 216.542969 C 123.207031 217.941406 124.128906 219.253906 125.082031 220.539062 C 126.035156 221.820312 126.382812 222.527344 126.984375 223.378906 C 137.210938 234.871094 152.460938 240.417969 170.066406 240.417969 C 209.050781 240.417969 242.140625 223.132812 256.785156 184.304688 C 267.167969 185.371094 277.136719 182.703125 281.679688 173.832031 C 274.441406 169.652344 265.144531 170.992188 259.789062 173.6875 L 273.984375 133.339844 L 218.5625 168.777344 L 200.859375 168.777344 L 200.859375 133.339844 Z M 147.742188 133.34375 " clip-rule="nonzero"/></clipPath><clipPath id="ad6d22323c"><path d="M 149 169 L 165 169 L 165 186 L 149 186 Z M 149 169 " clip-rule="nonzero"/></clipPath><clipPath id="6365c1b514"><path d="M 147.742188 133.34375 L 147.742188 168.78125 L 130.808594 168.78125 L 130.808594 186.496094 L 116.628906 186.496094 L 116.472656 188.039062 C 115.585938 197.691406 117.269531 206.59375 121.136719 214.207031 L 122.4375 216.542969 C 123.207031 217.941406 124.128906 219.253906 125.082031 220.539062 C 126.035156 221.820312 126.382812 222.527344 126.984375 223.378906 C 137.210938 234.871094 152.460938 240.417969 170.066406 240.417969 C 209.050781 240.417969 242.140625 223.132812 256.785156 184.304688 C 267.167969 185.371094 277.136719 182.703125 281.679688 173.832031 C 274.441406 169.652344 265.144531 170.992188 259.789062 173.6875 L 273.984375 133.339844 L 218.5625 168.777344 L 200.859375 168.777344 L 200.859375 133.339844 Z M 147.742188 133.34375 " clip-rule="nonzero"/></clipPath><clipPath id="5456514fc7"><path d="M 151 153 L 163 153 L 163 167 L 151 167 Z M 151 153 " clip-rule="nonzero"/></clipPath><clipPath id="2fb1c1ff6e"><path d="M 147.742188 133.34375 L 147.742188 168.78125 L 130.808594 168.78125 L 130.808594 186.496094 L 116.628906 186.496094 L 116.472656 188.039062 C 115.585938 197.691406 117.269531 206.59375 121.136719 214.207031 L 122.4375 216.542969 C 123.207031 217.941406 124.128906 219.253906 125.082031 220.539062 C 126.035156 221.820312 126.382812 222.527344 126.984375 223.378906 C 137.210938 234.871094 152.460938 240.417969 170.066406 240.417969 C 209.050781 240.417969 242.140625 223.132812 256.785156 184.304688 C 267.167969 185.371094 277.136719 182.703125 281.679688 173.832031 C 274.441406 169.652344 265.144531 170.992188 259.789062 173.6875 L 273.984375 133.339844 L 218.5625 168.777344 L 200.859375 168.777344 L 200.859375 133.339844 Z M 147.742188 133.34375 " clip-rule="nonzero"/></clipPath><clipPath id="f956ae8546"><path d="M 150 153 L 164 153 L 164 167 L 150 167 Z M 150 153 " clip-rule="nonzero"/></clipPath><clipPath id="3e64b1585a"><path d="M 147.742188 133.34375 L 147.742188 168.78125 L 130.808594 168.78125 L 130.808594 186.496094 L 116.628906 186.496094 L 116.472656 188.039062 C 115.585938 197.691406 117.269531 206.59375 121.136719 214.207031 L 122.4375 216.542969 C 123.207031 217.941406 124.128906 219.253906 125.082031 220.539062 C 126.035156 221.820312 126.382812 222.527344 126.984375 223.378906 C 137.210938 234.871094 152.460938 240.417969 170.066406 240.417969 C 209.050781 240.417969 242.140625 223.132812 256.785156 184.304688 C 267.167969 185.371094 277.136719 182.703125 281.679688 173.832031 C 274.441406 169.652344 265.144531 170.992188 259.789062 173.6875 L 273.984375 133.339844 L 218.5625 168.777344 L 200.859375 168.777344 L 200.859375 133.339844 Z M 147.742188 133.34375 " clip-rule="nonzero"/></clipPath><clipPath id="144b244468"><path d="M 151 171 L 163 171 L 163 184 L 151 184 Z M 151 171 " clip-rule="nonzero"/></clipPath><clipPath id="f93f54da1d"><path d="M 147.742188 133.34375 L 147.742188 168.78125 L 130.808594 168.78125 L 130.808594 186.496094 L 116.628906 186.496094 L 116.472656 188.039062 C 115.585938 197.691406 117.269531 206.59375 121.136719 214.207031 L 122.4375 216.542969 C 123.207031 217.941406 124.128906 219.253906 125.082031 220.539062 C 126.035156 221.820312 126.382812 222.527344 126.984375 223.378906 C 137.210938 234.871094 152.460938 240.417969 170.066406 240.417969 C 209.050781 240.417969 242.140625 223.132812 256.785156 184.304688 C 267.167969 185.371094 277.136719 182.703125 281.679688 173.832031 C 274.441406 169.652344 265.144531 170.992188 259.789062 173.6875 L 273.984375 133.339844 L 218.5625 168.777344 L 200.859375 168.777344 L 200.859375 133.339844 Z M 147.742188 133.34375 " clip-rule="nonzero"/></clipPath><clipPath id="1edf3a9bee"><path d="M 150 170 L 164 170 L 164 185 L 150 185 Z M 150 170 " clip-rule="nonzero"/></clipPath><clipPath id="d9594316bd"><path d="M 147.742188 133.34375 L 147.742188 168.78125 L 130.808594 168.78125 L 130.808594 186.496094 L 116.628906 186.496094 L 116.472656 188.039062 C 115.585938 197.691406 117.269531 206.59375 121.136719 214.207031 L 122.4375 216.542969 C 123.207031 217.941406 124.128906 219.253906 125.082031 220.539062 C 126.035156 221.820312 126.382812 222.527344 126.984375 223.378906 C 137.210938 234.871094 152.460938 240.417969 170.066406 240.417969 C 209.050781 240.417969 242.140625 223.132812 256.785156 184.304688 C 267.167969 185.371094 277.136719 182.703125 281.679688 173.832031 C 274.441406 169.652344 265.144531 170.992188 259.789062 173.6875 L 273.984375 133.339844 L 218.5625 168.777344 L 200.859375 168.777344 L 200.859375 133.339844 Z M 147.742188 133.34375 " clip-rule="nonzero"/></clipPath><clipPath id="2f2dcea90a"><path d="M 166 169 L 183 169 L 183 186 L 166 186 Z M 166 169 " clip-rule="nonzero"/></clipPath><clipPath id="2721cc874b"><path d="M 147.742188 133.34375 L 147.742188 168.78125 L 130.808594 168.78125 L 130.808594 186.496094 L 116.628906 186.496094 L 116.472656 188.039062 C 115.585938 197.691406 117.269531 206.59375 121.136719 214.207031 L 122.4375 216.542969 C 123.207031 217.941406 124.128906 219.253906 125.082031 220.539062 C 126.035156 221.820312 126.382812 222.527344 126.984375 223.378906 C 137.210938 234.871094 152.460938 240.417969 170.066406 240.417969 C 209.050781 240.417969 242.140625 223.132812 256.785156 184.304688 C 267.167969 185.371094 277.136719 182.703125 281.679688 173.832031 C 274.441406 169.652344 265.144531 170.992188 259.789062 173.6875 L 273.984375 133.339844 L 218.5625 168.777344 L 200.859375 168.777344 L 200.859375 133.339844 Z M 147.742188 133.34375 " clip-rule="nonzero"/></clipPath><clipPath id="5847eb1556"><path d="M 166 152 L 183 152 L 183 168 L 166 168 Z M 166 152 " clip-rule="nonzero"/></clipPath><clipPath id="6ece4db0f4"><path d="M 147.742188 133.34375 L 147.742188 168.78125 L 130.808594 168.78125 L 130.808594 186.496094 L 116.628906 186.496094 L 116.472656 188.039062 C 115.585938 197.691406 117.269531 206.59375 121.136719 214.207031 L 122.4375 216.542969 C 123.207031 217.941406 124.128906 219.253906 125.082031 220.539062 C 126.035156 221.820312 126.382812 222.527344 126.984375 223.378906 C 137.210938 234.871094 152.460938 240.417969 170.066406 240.417969 C 209.050781 240.417969 242.140625 223.132812 256.785156 184.304688 C 267.167969 185.371094 277.136719 182.703125 281.679688 173.832031 C 274.441406 169.652344 265.144531 170.992188 259.789062 173.6875 L 273.984375 133.339844 L 218.5625 168.777344 L 200.859375 168.777344 L 200.859375 133.339844 Z M 147.742188 133.34375 " clip-rule="nonzero"/></clipPath><clipPath id="ee9760f566"><path d="M 168 171 L 181 171 L 181 184 L 168 184 Z M 168 171 " clip-rule="nonzero"/></clipPath><clipPath id="9f1caf01bb"><path d="M 147.742188 133.34375 L 147.742188 168.78125 L 130.808594 168.78125 L 130.808594 186.496094 L 116.628906 186.496094 L 116.472656 188.039062 C 115.585938 197.691406 117.269531 206.59375 121.136719 214.207031 L 122.4375 216.542969 C 123.207031 217.941406 124.128906 219.253906 125.082031 220.539062 C 126.035156 221.820312 126.382812 222.527344 126.984375 223.378906 C 137.210938 234.871094 152.460938 240.417969 170.066406 240.417969 C 209.050781 240.417969 242.140625 223.132812 256.785156 184.304688 C 267.167969 185.371094 277.136719 182.703125 281.679688 173.832031 C 274.441406 169.652344 265.144531 170.992188 259.789062 173.6875 L 273.984375 133.339844 L 218.5625 168.777344 L 200.859375 168.777344 L 200.859375 133.339844 Z M 147.742188 133.34375 " clip-rule="nonzero"/></clipPath><clipPath id="5ffd0fb6a4"><path d="M 168 170 L 181 170 L 181 185 L 168 185 Z M 168 170 " clip-rule="nonzero"/></clipPath><clipPath id="1b23d4bf03"><path d="M 147.742188 133.34375 L 147.742188 168.78125 L 130.808594 168.78125 L 130.808594 186.496094 L 116.628906 186.496094 L 116.472656 188.039062 C 115.585938 197.691406 117.269531 206.59375 121.136719 214.207031 L 122.4375 216.542969 C 123.207031 217.941406 124.128906 219.253906 125.082031 220.539062 C 126.035156 221.820312 126.382812 222.527344 126.984375 223.378906 C 137.210938 234.871094 152.460938 240.417969 170.066406 240.417969 C 209.050781 240.417969 242.140625 223.132812 256.785156 184.304688 C 267.167969 185.371094 277.136719 182.703125 281.679688 173.832031 C 274.441406 169.652344 265.144531 170.992188 259.789062 173.6875 L 273.984375 133.339844 L 218.5625 168.777344 L 200.859375 168.777344 L 200.859375 133.339844 Z M 147.742188 133.34375 " clip-rule="nonzero"/></clipPath><clipPath id="dc439d5e15"><path d="M 168 153 L 181 153 L 181 167 L 168 167 Z M 168 153 " clip-rule="nonzero"/></clipPath><clipPath id="3249cca693"><path d="M 147.742188 133.34375 L 147.742188 168.78125 L 130.808594 168.78125 L 130.808594 186.496094 L 116.628906 186.496094 L 116.472656 188.039062 C 115.585938 197.691406 117.269531 206.59375 121.136719 214.207031 L 122.4375 216.542969 C 123.207031 217.941406 124.128906 219.253906 125.082031 220.539062 C 126.035156 221.820312 126.382812 222.527344 126.984375 223.378906 C 137.210938 234.871094 152.460938 240.417969 170.066406 240.417969 C 209.050781 240.417969 242.140625 223.132812 256.785156 184.304688 C 267.167969 185.371094 277.136719 182.703125 281.679688 173.832031 C 274.441406 169.652344 265.144531 170.992188 259.789062 173.6875 L 273.984375 133.339844 L 218.5625 168.777344 L 200.859375 168.777344 L 200.859375 133.339844 Z M 147.742188 133.34375 " clip-rule="nonzero"/></clipPath><clipPath id="042e990411"><path d="M 184 152 L 200 152 L 200 168 L 184 168 Z M 184 152 " clip-rule="nonzero"/></clipPath><clipPath id="4383837bcc"><path d="M 147.742188 133.34375 L 147.742188 168.78125 L 130.808594 168.78125 L 130.808594 186.496094 L 116.628906 186.496094 L 116.472656 188.039062 C 115.585938 197.691406 117.269531 206.59375 121.136719 214.207031 L 122.4375 216.542969 C 123.207031 217.941406 124.128906 219.253906 125.082031 220.539062 C 126.035156 221.820312 126.382812 222.527344 126.984375 223.378906 C 137.210938 234.871094 152.460938 240.417969 170.066406 240.417969 C 209.050781 240.417969 242.140625 223.132812 256.785156 184.304688 C 267.167969 185.371094 277.136719 182.703125 281.679688 173.832031 C 274.441406 169.652344 265.144531 170.992188 259.789062 173.6875 L 273.984375 133.339844 L 218.5625 168.777344 L 200.859375 168.777344 L 200.859375 133.339844 Z M 147.742188 133.34375 " clip-rule="nonzero"/></clipPath><clipPath id="b20f330cf1"><path d="M 184 169 L 200 169 L 200 186 L 184 186 Z M 184 169 " clip-rule="nonzero"/></clipPath><clipPath id="538a7abb21"><path d="M 147.742188 133.34375 L 147.742188 168.78125 L 130.808594 168.78125 L 130.808594 186.496094 L 116.628906 186.496094 L 116.472656 188.039062 C 115.585938 197.691406 117.269531 206.59375 121.136719 214.207031 L 122.4375 216.542969 C 123.207031 217.941406 124.128906 219.253906 125.082031 220.539062 C 126.035156 221.820312 126.382812 222.527344 126.984375 223.378906 C 137.210938 234.871094 152.460938 240.417969 170.066406 240.417969 C 209.050781 240.417969 242.140625 223.132812 256.785156 184.304688 C 267.167969 185.371094 277.136719 182.703125 281.679688 173.832031 C 274.441406 169.652344 265.144531 170.992188 259.789062 173.6875 L 273.984375 133.339844 L 218.5625 168.777344 L 200.859375 168.777344 L 200.859375 133.339844 Z M 147.742188 133.34375 " clip-rule="nonzero"/></clipPath><clipPath id="c693c26895"><path d="M 186 153 L 198 153 L 198 167 L 186 167 Z M 186 153 " clip-rule="nonzero"/></clipPath><clipPath id="ab3654a3f5"><path d="M 147.742188 133.34375 L 147.742188 168.78125 L 130.808594 168.78125 L 130.808594 186.496094 L 116.628906 186.496094 L 116.472656 188.039062 C 115.585938 197.691406 117.269531 206.59375 121.136719 214.207031 L 122.4375 216.542969 C 123.207031 217.941406 124.128906 219.253906 125.082031 220.539062 C 126.035156 221.820312 126.382812 222.527344 126.984375 223.378906 C 137.210938 234.871094 152.460938 240.417969 170.066406 240.417969 C 209.050781 240.417969 242.140625 223.132812 256.785156 184.304688 C 267.167969 185.371094 277.136719 182.703125 281.679688 173.832031 C 274.441406 169.652344 265.144531 170.992188 259.789062 173.6875 L 273.984375 133.339844 L 218.5625 168.777344 L 200.859375 168.777344 L 200.859375 133.339844 Z M 147.742188 133.34375 " clip-rule="nonzero"/></clipPath><clipPath id="4812ffb392"><path d="M 185 153 L 199 153 L 199 167 L 185 167 Z M 185 153 " clip-rule="nonzero"/></clipPath><clipPath id="acac0ed6c6"><path d="M 147.742188 133.34375 L 147.742188 168.78125 L 130.808594 168.78125 L 130.808594 186.496094 L 116.628906 186.496094 L 116.472656 188.039062 C 115.585938 197.691406 117.269531 206.59375 121.136719 214.207031 L 122.4375 216.542969 C 123.207031 217.941406 124.128906 219.253906 125.082031 220.539062 C 126.035156 221.820312 126.382812 222.527344 126.984375 223.378906 C 137.210938 234.871094 152.460938 240.417969 170.066406 240.417969 C 209.050781 240.417969 242.140625 223.132812 256.785156 184.304688 C 267.167969 185.371094 277.136719 182.703125 281.679688 173.832031 C 274.441406 169.652344 265.144531 170.992188 259.789062 173.6875 L 273.984375 133.339844 L 218.5625 168.777344 L 200.859375 168.777344 L 200.859375 133.339844 Z M 147.742188 133.34375 " clip-rule="nonzero"/></clipPath><clipPath id="4e813c2bab"><path d="M 186 171 L 198 171 L 198 184 L 186 184 Z M 186 171 " clip-rule="nonzero"/></clipPath><clipPath id="ffdfc21f71"><path d="M 147.742188 133.34375 L 147.742188 168.78125 L 130.808594 168.78125 L 130.808594 186.496094 L 116.628906 186.496094 L 116.472656 188.039062 C 115.585938 197.691406 117.269531 206.59375 121.136719 214.207031 L 122.4375 216.542969 C 123.207031 217.941406 124.128906 219.253906 125.082031 220.539062 C 126.035156 221.820312 126.382812 222.527344 126.984375 223.378906 C 137.210938 234.871094 152.460938 240.417969 170.066406 240.417969 C 209.050781 240.417969 242.140625 223.132812 256.785156 184.304688 C 267.167969 185.371094 277.136719 182.703125 281.679688 173.832031 C 274.441406 169.652344 265.144531 170.992188 259.789062 173.6875 L 273.984375 133.339844 L 218.5625 168.777344 L 200.859375 168.777344 L 200.859375 133.339844 Z M 147.742188 133.34375 " clip-rule="nonzero"/></clipPath><clipPath id="608c3cda13"><path d="M 185 170 L 199 170 L 199 185 L 185 185 Z M 185 170 " clip-rule="nonzero"/></clipPath><clipPath id="d8c415f2d1"><path d="M 147.742188 133.34375 L 147.742188 168.78125 L 130.808594 168.78125 L 130.808594 186.496094 L 116.628906 186.496094 L 116.472656 188.039062 C 115.585938 197.691406 117.269531 206.59375 121.136719 214.207031 L 122.4375 216.542969 C 123.207031 217.941406 124.128906 219.253906 125.082031 220.539062 C 126.035156 221.820312 126.382812 222.527344 126.984375 223.378906 C 137.210938 234.871094 152.460938 240.417969 170.066406 240.417969 C 209.050781 240.417969 242.140625 223.132812 256.785156 184.304688 C 267.167969 185.371094 277.136719 182.703125 281.679688 173.832031 C 274.441406 169.652344 265.144531 170.992188 259.789062 173.6875 L 273.984375 133.339844 L 218.5625 168.777344 L 200.859375 168.777344 L 200.859375 133.339844 Z M 147.742188 133.34375 " clip-rule="nonzero"/></clipPath><clipPath id="db14f53cab"><path d="M 202 169 L 218 169 L 218 186 L 202 186 Z M 202 169 " clip-rule="nonzero"/></clipPath><clipPath id="f7b36b705a"><path d="M 147.742188 133.34375 L 147.742188 168.78125 L 130.808594 168.78125 L 130.808594 186.496094 L 116.628906 186.496094 L 116.472656 188.039062 C 115.585938 197.691406 117.269531 206.59375 121.136719 214.207031 L 122.4375 216.542969 C 123.207031 217.941406 124.128906 219.253906 125.082031 220.539062 C 126.035156 221.820312 126.382812 222.527344 126.984375 223.378906 C 137.210938 234.871094 152.460938 240.417969 170.066406 240.417969 C 209.050781 240.417969 242.140625 223.132812 256.785156 184.304688 C 267.167969 185.371094 277.136719 182.703125 281.679688 173.832031 C 274.441406 169.652344 265.144531 170.992188 259.789062 173.6875 L 273.984375 133.339844 L 218.5625 168.777344 L 200.859375 168.777344 L 200.859375 133.339844 Z M 147.742188 133.34375 " clip-rule="nonzero"/></clipPath><clipPath id="e83ba99ac1"><path d="M 202 152 L 218 152 L 218 168 L 202 168 Z M 202 152 " clip-rule="nonzero"/></clipPath><clipPath id="e159c7d7bd"><path d="M 147.742188 133.34375 L 147.742188 168.78125 L 130.808594 168.78125 L 130.808594 186.496094 L 116.628906 186.496094 L 116.472656 188.039062 C 115.585938 197.691406 117.269531 206.59375 121.136719 214.207031 L 122.4375 216.542969 C 123.207031 217.941406 124.128906 219.253906 125.082031 220.539062 C 126.035156 221.820312 126.382812 222.527344 126.984375 223.378906 C 137.210938 234.871094 152.460938 240.417969 170.066406 240.417969 C 209.050781 240.417969 242.140625 223.132812 256.785156 184.304688 C 267.167969 185.371094 277.136719 182.703125 281.679688 173.832031 C 274.441406 169.652344 265.144531 170.992188 259.789062 173.6875 L 273.984375 133.339844 L 218.5625 168.777344 L 200.859375 168.777344 L 200.859375 133.339844 Z M 147.742188 133.34375 " clip-rule="nonzero"/></clipPath><clipPath id="f4ddd2013b"><path d="M 204 171 L 216 171 L 216 184 L 204 184 Z M 204 171 " clip-rule="nonzero"/></clipPath><clipPath id="4c84f9a8fa"><path d="M 147.742188 133.34375 L 147.742188 168.78125 L 130.808594 168.78125 L 130.808594 186.496094 L 116.628906 186.496094 L 116.472656 188.039062 C 115.585938 197.691406 117.269531 206.59375 121.136719 214.207031 L 122.4375 216.542969 C 123.207031 217.941406 124.128906 219.253906 125.082031 220.539062 C 126.035156 221.820312 126.382812 222.527344 126.984375 223.378906 C 137.210938 234.871094 152.460938 240.417969 170.066406 240.417969 C 209.050781 240.417969 242.140625 223.132812 256.785156 184.304688 C 267.167969 185.371094 277.136719 182.703125 281.679688 173.832031 C 274.441406 169.652344 265.144531 170.992188 259.789062 173.6875 L 273.984375 133.339844 L 218.5625 168.777344 L 200.859375 168.777344 L 200.859375 133.339844 Z M 147.742188 133.34375 " clip-rule="nonzero"/></clipPath><clipPath id="e606492429"><path d="M 203 170 L 217 170 L 217 185 L 203 185 Z M 203 170 " clip-rule="nonzero"/></clipPath><clipPath id="098d475855"><path d="M 147.742188 133.34375 L 147.742188 168.78125 L 130.808594 168.78125 L 130.808594 186.496094 L 116.628906 186.496094 L 116.472656 188.039062 C 115.585938 197.691406 117.269531 206.59375 121.136719 214.207031 L 122.4375 216.542969 C 123.207031 217.941406 124.128906 219.253906 125.082031 220.539062 C 126.035156 221.820312 126.382812 222.527344 126.984375 223.378906 C 137.210938 234.871094 152.460938 240.417969 170.066406 240.417969 C 209.050781 240.417969 242.140625 223.132812 256.785156 184.304688 C 267.167969 185.371094 277.136719 182.703125 281.679688 173.832031 C 274.441406 169.652344 265.144531 170.992188 259.789062 173.6875 L 273.984375 133.339844 L 218.5625 168.777344 L 200.859375 168.777344 L 200.859375 133.339844 Z M 147.742188 133.34375 " clip-rule="nonzero"/></clipPath><clipPath id="0c12342099"><path d="M 204 153 L 216 153 L 216 167 L 204 167 Z M 204 153 " clip-rule="nonzero"/></clipPath><clipPath id="a000286a8d"><path d="M 147.742188 133.34375 L 147.742188 168.78125 L 130.808594 168.78125 L 130.808594 186.496094 L 116.628906 186.496094 L 116.472656 188.039062 C 115.585938 197.691406 117.269531 206.59375 121.136719 214.207031 L 122.4375 216.542969 C 123.207031 217.941406 124.128906 219.253906 125.082031 220.539062 C 126.035156 221.820312 126.382812 222.527344 126.984375 223.378906 C 137.210938 234.871094 152.460938 240.417969 170.066406 240.417969 C 209.050781 240.417969 242.140625 223.132812 256.785156 184.304688 C 267.167969 185.371094 277.136719 182.703125 281.679688 173.832031 C 274.441406 169.652344 265.144531 170.992188 259.789062 173.6875 L 273.984375 133.339844 L 218.5625 168.777344 L 200.859375 168.777344 L 200.859375 133.339844 Z M 147.742188 133.34375 " clip-rule="nonzero"/></clipPath><clipPath id="c1e0c8846a"><path d="M 203 153 L 217 153 L 217 167 L 203 167 Z M 203 153 " clip-rule="nonzero"/></clipPath><clipPath id="5775c2d8e6"><path d="M 147.742188 133.34375 L 147.742188 168.78125 L 130.808594 168.78125 L 130.808594 186.496094 L 116.628906 186.496094 L 116.472656 188.039062 C 115.585938 197.691406 117.269531 206.59375 121.136719 214.207031 L 122.4375 216.542969 C 123.207031 217.941406 124.128906 219.253906 125.082031 220.539062 C 126.035156 221.820312 126.382812 222.527344 126.984375 223.378906 C 137.210938 234.871094 152.460938 240.417969 170.066406 240.417969 C 209.050781 240.417969 242.140625 223.132812 256.785156 184.304688 C 267.167969 185.371094 277.136719 182.703125 281.679688 173.832031 C 274.441406 169.652344 265.144531 170.992188 259.789062 173.6875 L 273.984375 133.339844 L 218.5625 168.777344 L 200.859375 168.777344 L 200.859375 133.339844 Z M 147.742188 133.34375 " clip-rule="nonzero"/></clipPath><clipPath id="fede407c22"><path d="M 116.183594 153 L 281.679688 153 L 281.679688 240.421875 L 116.183594 240.421875 Z M 116.183594 153 " clip-rule="nonzero"/></clipPath><clipPath id="3d8db8f72b"><path d="M 147.742188 133.34375 L 147.742188 168.78125 L 130.808594 168.78125 L 130.808594 186.496094 L 116.628906 186.496094 L 116.472656 188.039062 C 115.585938 197.691406 117.269531 206.59375 121.136719 214.207031 L 122.4375 216.542969 C 123.207031 217.941406 124.128906 219.253906 125.082031 220.539062 C 126.035156 221.820312 126.382812 222.527344 126.984375 223.378906 C 137.210938 234.871094 152.460938 240.417969 170.066406 240.417969 C 209.050781 240.417969 242.140625 223.132812 256.785156 184.304688 C 267.167969 185.371094 277.136719 182.703125 281.679688 173.832031 C 274.441406 169.652344 265.144531 170.992188 259.789062 173.6875 L 273.984375 133.339844 L 218.5625 168.777344 L 200.859375 168.777344 L 200.859375 133.339844 Z M 147.742188 133.34375 " clip-rule="nonzero"/></clipPath><clipPath id="82265e25e2"><path d="M 116.183594 200 L 281.679688 200 L 281.679688 240.421875 L 116.183594 240.421875 Z M 116.183594 200 " clip-rule="nonzero"/></clipPath><clipPath id="3acbda862e"><path d="M 147.742188 133.34375 L 147.742188 168.78125 L 130.808594 168.78125 L 130.808594 186.496094 L 116.628906 186.496094 L 116.472656 188.039062 C 115.585938 197.691406 117.269531 206.59375 121.136719 214.207031 L 122.4375 216.542969 C 123.207031 217.941406 124.128906 219.253906 125.082031 220.539062 C 126.035156 221.820312 126.382812 222.527344 126.984375 223.378906 C 137.210938 234.871094 152.460938 240.417969 170.066406 240.417969 C 209.050781 240.417969 242.140625 223.132812 256.785156 184.304688 C 267.167969 185.371094 277.136719 182.703125 281.679688 173.832031 C 274.441406 169.652344 265.144531 170.992188 259.789062 173.6875 L 273.984375 133.339844 L 218.5625 168.777344 L 200.859375 168.777344 L 200.859375 133.339844 Z M 147.742188 133.34375 " clip-rule="nonzero"/></clipPath><clipPath id="4c14ba553b"><path d="M 123 221 L 175 221 L 175 240.421875 L 123 240.421875 Z M 123 221 " clip-rule="nonzero"/></clipPath><clipPath id="5a08ca3f91"><path d="M 147.742188 133.34375 L 147.742188 168.78125 L 130.808594 168.78125 L 130.808594 186.496094 L 116.628906 186.496094 L 116.472656 188.039062 C 115.585938 197.691406 117.269531 206.59375 121.136719 214.207031 L 122.4375 216.542969 C 123.207031 217.941406 124.128906 219.253906 125.082031 220.539062 C 126.035156 221.820312 126.382812 222.527344 126.984375 223.378906 C 137.210938 234.871094 152.460938 240.417969 170.066406 240.417969 C 209.050781 240.417969 242.140625 223.132812 256.785156 184.304688 C 267.167969 185.371094 277.136719 182.703125 281.679688 173.832031 C 274.441406 169.652344 265.144531 170.992188 259.789062 173.6875 L 273.984375 133.339844 L 218.5625 168.777344 L 200.859375 168.777344 L 200.859375 133.339844 Z M 147.742188 133.34375 " clip-rule="nonzero"/></clipPath><clipPath id="273adac91b"><path d="M 116.183594 170 L 281.679688 170 L 281.679688 240.421875 L 116.183594 240.421875 Z M 116.183594 170 " clip-rule="nonzero"/></clipPath><clipPath id="98aa9dd5cc"><path d="M 147.742188 133.34375 L 147.742188 168.78125 L 130.808594 168.78125 L 130.808594 186.496094 L 116.628906 186.496094 L 116.472656 188.039062 C 115.585938 197.691406 117.269531 206.59375 121.136719 214.207031 L 122.4375 216.542969 C 123.207031 217.941406 124.128906 219.253906 125.082031 220.539062 C 126.035156 221.820312 126.382812 222.527344 126.984375 223.378906 C 137.210938 234.871094 152.460938 240.417969 170.066406 240.417969 C 209.050781 240.417969 242.140625 223.132812 256.785156 184.304688 C 267.167969 185.371094 277.136719 182.703125 281.679688 173.832031 C 274.441406 169.652344 265.144531 170.992188 259.789062 173.6875 L 273.984375 133.339844 L 218.5625 168.777344 L 200.859375 168.777344 L 200.859375 133.339844 Z M 147.742188 133.34375 " clip-rule="nonzero"/></clipPath></defs><g clip-path="url(#c405674f09)"><path fill="#394d54" d="M 202.769531 167.03125 L 220.367188 167.03125 L 220.367188 185.039062 L 229.265625 185.039062 C 233.453125 185.019531 237.53125 184.332031 241.496094 182.984375 C 243.414062 182.335938 245.558594 181.433594 247.441406 180.300781 C 244.957031 177.054688 243.691406 172.957031 243.273438 168.910156 C 242.765625 163.417969 243.875 156.261719 247.589844 151.960938 L 249.441406 149.820312 L 251.652344 151.59375 C 257.203125 156.058594 261.871094 162.292969 262.699219 169.40625 C 269.378906 167.4375 277.230469 167.90625 283.125 171.308594 L 285.542969 172.707031 L 284.269531 175.191406 C 279.320312 184.914062 268.902344 187.929688 258.71875 187.394531 C 243.476562 225.378906 210.300781 243.363281 170.074219 243.363281 C 149.289062 243.363281 130.222656 235.585938 119.371094 217.136719 C 118.730469 215.988281 118.191406 214.789062 117.609375 213.613281 C 113.941406 205.492188 112.722656 196.59375 113.546875 187.75 L 113.796875 185.089844 L 128.800781 185.089844 L 128.800781 167.046875 L 146.402344 167.046875 L 146.402344 149.433594 L 181.605469 149.433594 L 181.605469 131.820312 L 202.726562 131.820312 L 202.726562 167.050781 " fill-opacity="1" fill-rule="nonzero"/></g><g clip-path="url(#454dc0ce0b)"><g clip-path="url(#f1d3ddedbe)"><path fill="#20c2ef" d="M 184.582031 134.738281 L 199.835938 134.738281 L 199.835938 150.003906 L 184.582031 150.003906 Z M 184.582031 134.738281 " fill-opacity="1" fill-rule="nonzero"/></g></g><g clip-path="url(#96c5a18643)"><g clip-path="url(#2292d677e8)"><path fill="#000000" d="M 186.453125 148.734375 L 186.453125 136.007812 M 188.742188 148.730469 L 188.742188 136.007812 M 191.050781 148.730469 L 191.050781 136.007812 M 193.363281 148.730469 L 193.363281 136.007812 M 195.675781 148.730469 L 195.675781 136.007812 M 197.960938 148.730469 L 197.960938 136.007812 " fill-opacity="1" fill-rule="nonzero"/></g></g><g clip-path="url(#1d60bccd9b)"><g clip-path="url(#af54c52e0f)"><path stroke-linecap="butt" transform="matrix(0.769749, 0, 0, 0.770349, 89.241846, 131.803057)" fill="none" stroke-linejoin="miter" d="M 126.289645 21.978773 L 126.289645 5.45825 M 129.263424 21.973703 L 129.263424 5.45825 M 132.262577 21.973703 L 132.262577 5.45825 M 135.266805 21.973703 L 135.266805 5.45825 M 138.271032 21.973703 L 138.271032 5.45825 M 141.239737 21.973703 L 141.239737 5.45825 " stroke="#394d54" stroke-width="1.56" stroke-opacity="1" stroke-miterlimit="4"/></g></g><g clip-path="url(#7f307428b1)"><g clip-path="url(#16ab78d023)"><path fill="#00acd3" d="M 202.183594 150.011719 L 217.4375 150.011719 L 217.4375 134.746094 L 202.183594 134.746094 Z M 202.183594 150.011719 " fill-opacity="1" fill-rule="nonzero"/></g></g><g clip-path="url(#05d2bf2417)"><g clip-path="url(#5c8e2fcc8e)"><path fill="#000000" d="M 204.054688 136.011719 L 204.054688 148.734375 M 206.34375 136.011719 L 206.34375 148.734375 M 208.652344 136.011719 L 208.652344 148.734375 M 210.964844 136.011719 L 210.964844 148.734375 M 213.277344 136.011719 L 213.277344 148.734375 M 215.5625 136.011719 L 215.5625 148.734375 " fill-opacity="1" fill-rule="nonzero"/></g></g><g clip-path="url(#8b62271de3)"><g clip-path="url(#29f51117d0)"><path stroke-linecap="butt" transform="matrix(0.769749, 0, 0, -0.770349, 106.842917, 152.940429)" fill="none" stroke-linejoin="miter" d="M 126.290284 21.975388 L 126.290284 5.459936 M 129.264063 21.975388 L 129.264063 5.459936 M 132.263216 21.975388 L 132.263216 5.459936 M 135.267443 21.975388 L 135.267443 5.459936 M 138.271671 21.975388 L 138.271671 5.459936 M 141.240376 21.975388 L 141.240376 5.459936 " stroke="#394d54" stroke-width="1.56" stroke-opacity="1" stroke-miterlimit="4"/></g></g><g clip-path="url(#468a713ab3)"><g clip-path="url(#cdeaefcc4a)"><path fill="#00acd3" d="M 114.179688 152.34375 L 129.433594 152.34375 L 129.433594 167.609375 L 114.175781 167.609375 Z M 114.179688 152.34375 " fill-opacity="1" fill-rule="nonzero"/></g></g><g clip-path="url(#9331b870fb)"><g clip-path="url(#e48b2f9083)"><path fill="#20c2ef" d="M 114.179688 169.96875 L 129.433594 169.96875 L 129.433594 185.234375 L 114.175781 185.234375 Z M 114.179688 169.96875 " fill-opacity="1" fill-rule="nonzero"/></g></g><g clip-path="url(#efd0c38738)"><g clip-path="url(#f6f651f73e)"><path fill="#000000" d="M 116.050781 166.347656 L 116.050781 153.625 M 118.335938 166.347656 L 118.335938 153.625 M 120.648438 166.347656 L 120.648438 153.625 M 122.960938 166.347656 L 122.960938 153.625 M 125.269531 166.347656 L 125.269531 153.625 M 127.558594 166.347656 L 127.558594 153.625 " fill-opacity="1" fill-rule="nonzero"/></g></g><g clip-path="url(#dba0c860dd)"><g clip-path="url(#2c9627b0d7)"><path stroke-linecap="butt" transform="matrix(0.769749, 0, 0, 0.770349, 18.837564, 149.417846)" fill="none" stroke-linejoin="miter" d="M 126.292162 21.976816 L 126.292162 5.461363 M 129.260867 21.976816 L 129.260867 5.461363 M 132.265095 21.976816 L 132.265095 5.461363 M 135.269322 21.976816 L 135.269322 5.461363 M 138.268475 21.976816 L 138.268475 5.461363 M 141.242254 21.976816 L 141.242254 5.461363 " stroke="#394d54" stroke-width="1.56" stroke-opacity="1" stroke-miterlimit="4"/></g></g><g clip-path="url(#c0d8faed8c)"><g clip-path="url(#6049e6b798)"><path fill="#000000" d="M 116.050781 183.960938 L 116.050781 171.238281 M 118.335938 183.960938 L 118.335938 171.238281 M 120.648438 183.960938 L 120.648438 171.238281 M 122.960938 183.960938 L 122.960938 171.238281 M 125.269531 183.960938 L 125.269531 171.238281 M 127.558594 183.960938 L 127.558594 171.238281 " fill-opacity="1" fill-rule="nonzero"/></g></g><g clip-path="url(#8beae6319c)"><g clip-path="url(#a24e6b0c82)"><path stroke-linecap="butt" transform="matrix(0.769749, 0, 0, 0.770349, 18.837564, 167.032635)" fill="none" stroke-linejoin="miter" d="M 126.292162 21.974858 L 126.292162 5.459406 M 129.260867 21.974858 L 129.260867 5.459406 M 132.265095 21.974858 L 132.265095 5.459406 M 135.269322 21.974858 L 135.269322 5.459406 M 138.268475 21.974858 L 138.268475 5.459406 M 141.242254 21.974858 L 141.242254 5.459406 " stroke="#394d54" stroke-width="1.56" stroke-opacity="1" stroke-miterlimit="4"/></g></g><g clip-path="url(#69ed7a3aa0)"><g clip-path="url(#2f722a814f)"><path fill="#00acd3" d="M 131.78125 185.242188 L 147.035156 185.242188 L 147.035156 169.976562 L 131.777344 169.976562 Z M 131.78125 185.242188 " fill-opacity="1" fill-rule="nonzero"/></g></g><g clip-path="url(#27f807118d)"><g clip-path="url(#0c08a16aa2)"><path fill="#20c2ef" d="M 131.78125 167.621094 L 147.035156 167.621094 L 147.035156 152.351562 L 131.777344 152.351562 Z M 131.78125 167.621094 " fill-opacity="1" fill-rule="nonzero"/></g></g><g clip-path="url(#9e85e13971)"><g clip-path="url(#b42fccbcb9)"><path fill="#000000" d="M 133.648438 171.238281 L 133.648438 183.964844 M 135.9375 171.242188 L 135.9375 183.964844 M 138.25 171.242188 L 138.25 183.964844 M 140.558594 171.242188 L 140.558594 183.964844 M 142.871094 171.242188 L 142.871094 183.964844 M 145.15625 171.242188 L 145.15625 183.964844 " fill-opacity="1" fill-rule="nonzero"/></g></g><g clip-path="url(#7fedf149eb)"><g clip-path="url(#a70e01373f)"><path stroke-linecap="butt" transform="matrix(0.769749, 0, 0, -0.770349, 36.438631, 188.170008)" fill="none" stroke-linejoin="miter" d="M 126.287732 21.979303 L 126.287732 5.45878 M 129.261511 21.974233 L 129.261511 5.45878 M 132.265739 21.974233 L 132.265739 5.45878 M 135.264891 21.974233 L 135.264891 5.45878 M 138.269119 21.974233 L 138.269119 5.45878 M 141.237824 21.974233 L 141.237824 5.45878 " stroke="#394d54" stroke-width="1.56" stroke-opacity="1" stroke-miterlimit="4"/></g></g><g clip-path="url(#aa0b8fe953)"><g clip-path="url(#1d71716bb5)"><path stroke-linecap="butt" transform="matrix(0.769749, 0, 0, -0.770349, 36.438631, 170.555218)" fill-opacity="1" fill="#000000" fill-rule="nonzero" stroke-linejoin="miter" d="M 126.287732 21.977346 L 126.287732 5.461893 M 129.261511 21.977346 L 129.261511 5.461893 M 132.265739 21.977346 L 132.265739 5.461893 M 135.264891 21.977346 L 135.264891 5.461893 M 138.269119 21.977346 L 138.269119 5.461893 M 141.237824 21.977346 L 141.237824 5.461893 " stroke="#394d54" stroke-width="1.56" stroke-opacity="1" stroke-miterlimit="4"/></g></g><g clip-path="url(#15aa896be7)"><g clip-path="url(#d674c0d0a6)"><path fill="#00acd3" d="M 149.378906 152.34375 L 164.636719 152.34375 L 164.636719 167.609375 L 149.378906 167.609375 Z M 149.378906 152.34375 " fill-opacity="1" fill-rule="nonzero"/></g></g><g clip-path="url(#ad6d22323c)"><g clip-path="url(#6365c1b514)"><path fill="#20c2ef" d="M 149.378906 169.96875 L 164.636719 169.96875 L 164.636719 185.234375 L 149.378906 185.234375 Z M 149.378906 169.96875 " fill-opacity="1" fill-rule="nonzero"/></g></g><g clip-path="url(#5456514fc7)"><g clip-path="url(#2fb1c1ff6e)"><path fill="#000000" d="M 151.25 166.347656 L 151.25 153.625 M 153.539062 166.347656 L 153.539062 153.625 M 155.851562 166.347656 L 155.851562 153.625 M 158.160156 166.347656 L 158.160156 153.625 M 160.472656 166.347656 L 160.472656 153.625 M 162.757812 166.347656 L 162.757812 153.625 " fill-opacity="1" fill-rule="nonzero"/></g></g><g clip-path="url(#f956ae8546)"><g clip-path="url(#3e64b1585a)"><path stroke-linecap="butt" transform="matrix(0.769749, 0, 0, 0.770349, 54.039707, 149.417846)" fill="none" stroke-linejoin="miter" d="M 126.288364 21.976816 L 126.288364 5.461363 M 129.262144 21.976816 L 129.262144 5.461363 M 132.266371 21.976816 L 132.266371 5.461363 M 135.265524 21.976816 L 135.265524 5.461363 M 138.269752 21.976816 L 138.269752 5.461363 M 141.238456 21.976816 L 141.238456 5.461363 " stroke="#394d54" stroke-width="1.56" stroke-opacity="1" stroke-miterlimit="4"/></g></g><g clip-path="url(#144b244468)"><g clip-path="url(#f93f54da1d)"><path fill="#000000" d="M 151.25 183.960938 L 151.25 171.238281 M 153.539062 183.960938 L 153.539062 171.238281 M 155.851562 183.960938 L 155.851562 171.238281 M 158.160156 183.960938 L 158.160156 171.238281 M 160.472656 183.960938 L 160.472656 171.238281 M 162.757812 183.960938 L 162.757812 171.238281 " fill-opacity="1" fill-rule="nonzero"/></g></g><g clip-path="url(#1edf3a9bee)"><g clip-path="url(#d9594316bd)"><path stroke-linecap="butt" transform="matrix(0.769749, 0, 0, 0.770349, 54.039707, 167.032635)" fill="none" stroke-linejoin="miter" d="M 126.288364 21.974858 L 126.288364 5.459406 M 129.262144 21.974858 L 129.262144 5.459406 M 132.266371 21.974858 L 132.266371 5.459406 M 135.265524 21.974858 L 135.265524 5.459406 M 138.269752 21.974858 L 138.269752 5.459406 M 141.238456 21.974858 L 141.238456 5.459406 " stroke="#394d54" stroke-width="1.56" stroke-opacity="1" stroke-miterlimit="4"/></g></g><g clip-path="url(#2f2dcea90a)"><g clip-path="url(#2721cc874b)"><path fill="#00acd3" d="M 166.980469 185.242188 L 182.238281 185.242188 L 182.238281 169.976562 L 166.980469 169.976562 Z M 166.980469 185.242188 " fill-opacity="1" fill-rule="nonzero"/></g></g><g clip-path="url(#5847eb1556)"><g clip-path="url(#6ece4db0f4)"><path fill="#20c2ef" d="M 166.980469 167.621094 L 182.238281 167.621094 L 182.238281 152.351562 L 166.980469 152.351562 Z M 166.980469 167.621094 " fill-opacity="1" fill-rule="nonzero"/></g></g><g clip-path="url(#ee9760f566)"><g clip-path="url(#9f1caf01bb)"><path fill="#000000" d="M 168.851562 171.238281 L 168.851562 183.964844 M 171.140625 171.242188 L 171.140625 183.964844 M 173.449219 171.242188 L 173.449219 183.964844 M 175.761719 171.242188 L 175.761719 183.964844 M 178.074219 171.242188 L 178.074219 183.964844 M 180.359375 171.242188 L 180.359375 183.964844 " fill-opacity="1" fill-rule="nonzero"/></g></g><g clip-path="url(#5ffd0fb6a4)"><g clip-path="url(#1b23d4bf03)"><path stroke-linecap="butt" transform="matrix(0.769749, 0, 0, -0.770349, 71.640775, 188.170008)" fill="none" stroke-linejoin="miter" d="M 126.289006 21.979303 L 126.289006 5.45878 M 129.262786 21.974233 L 129.262786 5.45878 M 132.261938 21.974233 L 132.261938 5.45878 M 135.266166 21.974233 L 135.266166 5.45878 M 138.270394 21.974233 L 138.270394 5.45878 M 141.239098 21.974233 L 141.239098 5.45878 " stroke="#394d54" stroke-width="1.56" stroke-opacity="1" stroke-miterlimit="4"/></g></g><g clip-path="url(#dc439d5e15)"><g clip-path="url(#3249cca693)"><path stroke-linecap="butt" transform="matrix(0.769749, 0, 0, -0.770349, 71.640775, 170.555218)" fill-opacity="1" fill="#000000" fill-rule="nonzero" stroke-linejoin="miter" d="M 126.289006 21.977346 L 126.289006 5.461893 M 129.262786 21.977346 L 129.262786 5.461893 M 132.261938 21.977346 L 132.261938 5.461893 M 135.266166 21.977346 L 135.266166 5.461893 M 138.270394 21.977346 L 138.270394 5.461893 M 141.239098 21.977346 L 141.239098 5.461893 " stroke="#394d54" stroke-width="1.56" stroke-opacity="1" stroke-miterlimit="4"/></g></g><g clip-path="url(#042e990411)"><g clip-path="url(#4383837bcc)"><path fill="#00acd3" d="M 184.582031 152.34375 L 199.835938 152.34375 L 199.835938 167.609375 L 184.582031 167.609375 Z M 184.582031 152.34375 " fill-opacity="1" fill-rule="nonzero"/></g></g><g clip-path="url(#b20f330cf1)"><g clip-path="url(#538a7abb21)"><path fill="#20c2ef" d="M 184.582031 169.96875 L 199.835938 169.96875 L 199.835938 185.234375 L 184.582031 185.234375 Z M 184.582031 169.96875 " fill-opacity="1" fill-rule="nonzero"/></g></g><g clip-path="url(#c693c26895)"><g clip-path="url(#ab3654a3f5)"><path fill="#000000" d="M 186.453125 166.347656 L 186.453125 153.625 M 188.742188 166.347656 L 188.742188 153.625 M 191.050781 166.347656 L 191.050781 153.625 M 193.363281 166.347656 L 193.363281 153.625 M 195.675781 166.347656 L 195.675781 153.625 M 197.960938 166.347656 L 197.960938 153.625 " fill-opacity="1" fill-rule="nonzero"/></g></g><g clip-path="url(#4812ffb392)"><g clip-path="url(#acac0ed6c6)"><path stroke-linecap="butt" transform="matrix(0.769749, 0, 0, 0.770349, 89.241846, 149.417846)" fill="none" stroke-linejoin="miter" d="M 126.289645 21.976816 L 126.289645 5.461363 M 129.263424 21.976816 L 129.263424 5.461363 M 132.262577 21.976816 L 132.262577 5.461363 M 135.266805 21.976816 L 135.266805 5.461363 M 138.271032 21.976816 L 138.271032 5.461363 M 141.239737 21.976816 L 141.239737 5.461363 " stroke="#394d54" stroke-width="1.56" stroke-opacity="1" stroke-miterlimit="4"/></g></g><g clip-path="url(#4e813c2bab)"><g clip-path="url(#ffdfc21f71)"><path fill="#000000" d="M 186.453125 183.960938 L 186.453125 171.238281 M 188.742188 183.960938 L 188.742188 171.238281 M 191.050781 183.960938 L 191.050781 171.238281 M 193.363281 183.960938 L 193.363281 171.238281 M 195.675781 183.960938 L 195.675781 171.238281 M 197.960938 183.960938 L 197.960938 171.238281 " fill-opacity="1" fill-rule="nonzero"/></g></g><g clip-path="url(#608c3cda13)"><g clip-path="url(#d8c415f2d1)"><path stroke-linecap="butt" transform="matrix(0.769749, 0, 0, 0.770349, 89.241846, 167.032635)" fill="none" stroke-linejoin="miter" d="M 126.289645 21.974858 L 126.289645 5.459406 M 129.263424 21.974858 L 129.263424 5.459406 M 132.262577 21.974858 L 132.262577 5.459406 M 135.266805 21.974858 L 135.266805 5.459406 M 138.271032 21.974858 L 138.271032 5.459406 M 141.239737 21.974858 L 141.239737 5.459406 " stroke="#394d54" stroke-width="1.56" stroke-opacity="1" stroke-miterlimit="4"/></g></g><g clip-path="url(#db14f53cab)"><g clip-path="url(#f7b36b705a)"><path fill="#00acd3" d="M 202.183594 185.242188 L 217.4375 185.242188 L 217.4375 169.976562 L 202.183594 169.976562 Z M 202.183594 185.242188 " fill-opacity="1" fill-rule="nonzero"/></g></g><g clip-path="url(#e83ba99ac1)"><g clip-path="url(#e159c7d7bd)"><path fill="#20c2ef" d="M 202.183594 167.621094 L 217.4375 167.621094 L 217.4375 152.351562 L 202.183594 152.351562 Z M 202.183594 167.621094 " fill-opacity="1" fill-rule="nonzero"/></g></g><g clip-path="url(#f4ddd2013b)"><g clip-path="url(#4c84f9a8fa)"><path fill="#000000" d="M 204.054688 171.238281 L 204.054688 183.964844 M 206.34375 171.242188 L 206.34375 183.964844 M 208.652344 171.242188 L 208.652344 183.964844 M 210.964844 171.242188 L 210.964844 183.964844 M 213.277344 171.242188 L 213.277344 183.964844 M 215.5625 171.242188 L 215.5625 183.964844 " fill-opacity="1" fill-rule="nonzero"/></g></g><g clip-path="url(#e606492429)"><g clip-path="url(#098d475855)"><path stroke-linecap="butt" transform="matrix(0.769749, 0, 0, -0.770349, 106.842917, 188.170008)" fill="none" stroke-linejoin="miter" d="M 126.290284 21.979303 L 126.290284 5.45878 M 129.264063 21.974233 L 129.264063 5.45878 M 132.263216 21.974233 L 132.263216 5.45878 M 135.267443 21.974233 L 135.267443 5.45878 M 138.271671 21.974233 L 138.271671 5.45878 M 141.240376 21.974233 L 141.240376 5.45878 " stroke="#394d54" stroke-width="1.56" stroke-opacity="1" stroke-miterlimit="4"/></g></g><g clip-path="url(#0c12342099)"><g clip-path="url(#a000286a8d)"><path fill="#000000" d="M 204.054688 153.625 L 204.054688 166.347656 M 206.34375 153.625 L 206.34375 166.347656 M 208.652344 153.625 L 208.652344 166.347656 M 210.964844 153.625 L 210.964844 166.347656 M 213.277344 153.625 L 213.277344 166.347656 M 215.5625 153.625 L 215.5625 166.347656 " fill-opacity="1" fill-rule="nonzero"/></g></g><g clip-path="url(#c1e0c8846a)"><g clip-path="url(#5775c2d8e6)"><path stroke-linecap="butt" transform="matrix(0.769749, 0, 0, -0.770349, 106.842917, 170.555218)" fill="none" stroke-linejoin="miter" d="M 126.290284 21.977346 L 126.290284 5.461893 M 129.264063 21.977346 L 129.264063 5.461893 M 132.263216 21.977346 L 132.263216 5.461893 M 135.267443 21.977346 L 135.267443 5.461893 M 138.271671 21.977346 L 138.271671 5.461893 M 141.240376 21.977346 L 141.240376 5.461893 " stroke="#394d54" stroke-width="1.56" stroke-opacity="1" stroke-miterlimit="4"/></g></g><g clip-path="url(#fede407c22)"><g clip-path="url(#3d8db8f72b)"><path fill="#17b5eb" d="M 259.796875 173.695312 C 260.976562 164.515625 254.109375 157.304688 249.855469 153.882812 C 244.949219 159.558594 244.1875 174.433594 251.882812 180.695312 C 247.585938 184.515625 238.539062 187.972656 229.269531 187.972656 L 115.410156 187.972656 C 114.507812 197.65625 115.410156 244.273438 115.410156 244.273438 L 282.445312 244.273438 L 281.683594 173.84375 C 274.449219 169.667969 265.148438 171 259.792969 173.695312 " fill-opacity="1" fill-rule="nonzero"/></g></g><g clip-path="url(#82265e25e2)"><g clip-path="url(#3acbda862e)"><path fill="#000000" d="M 115.414062 200.363281 L 115.414062 244.273438 L 282.449219 244.273438 L 282.449219 200.363281 " fill-opacity="0.17" fill-rule="nonzero"/></g></g><g clip-path="url(#4c14ba553b)"><g clip-path="url(#5a08ca3f91)"><path fill="#d4edf1" d="M 174.867188 240.34375 C 164.445312 235.394531 158.726562 228.667969 155.542969 221.320312 L 123.878906 222.699219 L 140.046875 244.269531 L 174.867188 240.34375 " fill-opacity="1" fill-rule="nonzero"/></g></g><g clip-path="url(#273adac91b)"><g clip-path="url(#98aa9dd5cc)"><path fill="#000000" d="M 260.511719 173.355469 L 260.511719 173.378906 C 244.453125 194.097656 221.421875 212.1875 196.695312 221.695312 C 174.636719 230.171875 155.40625 230.214844 142.136719 223.402344 C 140.710938 222.597656 139.308594 221.699219 137.90625 220.851562 C 128.175781 214.046875 122.699219 202.796875 123.160156 187.96875 L 115.414062 187.96875 L 115.414062 244.273438 L 282.449219 244.273438 L 282.449219 170.320312 L 263.207031 170.320312 Z M 260.511719 173.355469 " fill-opacity="0.085" fill-rule="nonzero"/></g></g><path stroke-linecap="round" transform="matrix(4.168464, 0, 0, 4.171714, 76.442577, 181.855272)" fill="none" stroke-linejoin="miter" d="M 11.49601 9.612779 C 14.112382 9.756043 16.903053 9.783197 19.337628 9.019123 " stroke="#394d54" stroke-width="0.628" stroke-opacity="1" stroke-miterlimit="4"/><path fill="#d4edf1" d="M 167.886719 214.199219 C 167.886719 214.476562 167.859375 214.75 167.804688 215.019531 C 167.75 215.289062 167.671875 215.554688 167.566406 215.808594 C 167.460938 216.0625 167.328125 216.304688 167.175781 216.535156 C 167.023438 216.765625 166.847656 216.976562 166.652344 217.171875 C 166.457031 217.367188 166.246094 217.542969 166.015625 217.695312 C 165.785156 217.851562 165.542969 217.980469 165.289062 218.085938 C 165.035156 218.191406 164.769531 218.273438 164.5 218.328125 C 164.230469 218.378906 163.957031 218.40625 163.679688 218.40625 C 163.402344 218.40625 163.128906 218.382812 162.859375 218.328125 C 162.589844 218.273438 162.324219 218.191406 162.070312 218.085938 C 161.816406 217.980469 161.570312 217.851562 161.34375 217.699219 C 161.113281 217.546875 160.898438 217.371094 160.703125 217.175781 C 160.507812 216.980469 160.335938 216.765625 160.179688 216.539062 C 160.027344 216.308594 159.898438 216.066406 159.792969 215.808594 C 159.6875 215.554688 159.605469 215.292969 159.550781 215.019531 C 159.496094 214.75 159.46875 214.476562 159.46875 214.199219 C 159.46875 213.921875 159.496094 213.648438 159.550781 213.375 C 159.605469 213.105469 159.683594 212.839844 159.789062 212.585938 C 159.894531 212.332031 160.027344 212.085938 160.179688 211.859375 C 160.332031 211.628906 160.507812 211.414062 160.703125 211.21875 C 160.898438 211.023438 161.109375 210.847656 161.339844 210.695312 C 161.570312 210.542969 161.8125 210.410156 162.070312 210.304688 C 162.324219 210.199219 162.585938 210.121094 162.859375 210.066406 C 163.128906 210.011719 163.402344 209.984375 163.679688 209.984375 C 163.957031 209.984375 164.230469 210.011719 164.5 210.066406 C 164.773438 210.121094 165.035156 210.199219 165.289062 210.308594 C 165.546875 210.414062 165.789062 210.542969 166.015625 210.695312 C 166.246094 210.851562 166.460938 211.023438 166.65625 211.21875 C 166.851562 211.417969 167.023438 211.628906 167.175781 211.859375 C 167.332031 212.089844 167.460938 212.332031 167.566406 212.585938 C 167.671875 212.84375 167.75 213.105469 167.804688 213.378906 C 167.859375 213.648438 167.886719 213.921875 167.886719 214.199219 Z M 167.886719 214.199219 " fill-opacity="1" fill-rule="nonzero"/><path fill="#394d54" d="M 164.8125 211.390625 C 164.445312 211.597656 164.195312 212 164.195312 212.457031 C 164.195312 213.140625 164.746094 213.691406 165.425781 213.691406 C 165.894531 213.691406 166.261719 213.429688 166.511719 213.046875 C 166.664062 213.417969 166.738281 213.800781 166.738281 214.203125 C 166.738281 215.871094 165.390625 217.21875 163.726562 217.21875 C 162.0625 217.21875 160.710938 215.867188 160.710938 214.203125 C 160.710938 212.539062 162.0625 211.1875 163.726562 211.1875 C 164.101562 211.1875 164.46875 211.253906 164.816406 211.390625 Z M 89.238281 201.253906 L 285.007812 201.253906 C 280.742188 200.167969 271.523438 198.75 273.042969 193.117188 C 265.289062 202.097656 246.597656 199.375 241.886719 194.988281 C 236.632812 202.613281 206.046875 199.714844 203.917969 193.734375 C 197.332031 201.46875 176.925781 201.46875 170.339844 193.734375 C 168.207031 199.675781 137.628906 202.582031 132.410156 194.988281 C 127.648438 199.375 108.957031 202.101562 101.203125 193.117188 C 102.726562 198.710938 93.5 200.210938 89.238281 201.253906 " fill-opacity="1" fill-rule="nonzero"/></svg>