<svg xmlns="http://www.w3.org/2000/svg" xmlns:xlink="http://www.w3.org/1999/xlink" width="500" zoomAndPan="magnify" viewBox="0 0 375 374.999991" height="500" preserveAspectRatio="xMidYMid meet" version="1.0"><defs><clipPath id="7775b7a0ae"><path d="M 96.832031 88.679688 L 278.332031 88.679688 L 278.332031 286.679688 L 96.832031 286.679688 Z M 96.832031 88.679688 " clip-rule="nonzero"/></clipPath></defs><g clip-path="url(#7775b7a0ae)"><path fill="#2196f3" d="M 277.191406 90.035156 C 276.800781 89.601562 276.339844 89.269531 275.804688 89.035156 C 275.273438 88.796875 274.714844 88.679688 274.132812 88.679688 L 101.035156 88.679688 C 100.746094 88.679688 100.460938 88.707031 100.175781 88.765625 C 99.894531 88.824219 99.621094 88.914062 99.355469 89.03125 C 99.089844 89.144531 98.839844 89.289062 98.605469 89.457031 C 98.371094 89.625 98.15625 89.816406 97.964844 90.03125 C 97.769531 90.246094 97.597656 90.476562 97.453125 90.726562 C 97.308594 90.976562 97.191406 91.238281 97.097656 91.511719 C 97.007812 91.789062 96.949219 92.070312 96.917969 92.355469 C 96.882812 92.644531 96.882812 92.929688 96.914062 93.21875 L 113.398438 258.21875 C 113.4375 258.613281 113.53125 258.996094 113.679688 259.367188 C 113.832031 259.734375 114.03125 260.074219 114.277344 260.386719 C 114.523438 260.695312 114.8125 260.964844 115.136719 261.195312 C 115.464844 261.421875 115.816406 261.597656 116.191406 261.726562 L 190.378906 286.476562 C 190.808594 286.613281 191.25 286.683594 191.703125 286.679688 C 192.203125 286.679688 192.6875 286.59375 193.15625 286.417969 L 259.097656 261.667969 C 259.835938 261.394531 260.445312 260.945312 260.925781 260.324219 C 261.410156 259.703125 261.6875 259 261.769531 258.21875 L 278.253906 93.21875 C 278.3125 92.636719 278.246094 92.066406 278.0625 91.511719 C 277.875 90.957031 277.585938 90.464844 277.191406 90.035156 Z M 277.191406 90.035156 " fill-opacity="1" fill-rule="nonzero"/></g><path fill="#fafafa" d="M 191.703125 245.429688 C 191.261719 245.429688 190.824219 245.363281 190.402344 245.226562 L 153.308594 232.851562 C 152.609375 232.617188 152.015625 232.222656 151.527344 231.671875 C 151.039062 231.117188 150.71875 230.480469 150.574219 229.757812 L 146.453125 209.132812 C 146.398438 208.867188 146.371094 208.597656 146.367188 208.328125 C 146.367188 208.054688 146.390625 207.785156 146.441406 207.519531 C 146.496094 207.253906 146.570312 206.996094 146.675781 206.746094 C 146.777344 206.496094 146.902344 206.257812 147.050781 206.03125 C 147.199219 205.804688 147.371094 205.59375 147.5625 205.402344 C 147.75 205.210938 147.957031 205.039062 148.183594 204.886719 C 148.40625 204.734375 148.644531 204.605469 148.894531 204.5 C 149.144531 204.394531 149.402344 204.316406 149.667969 204.261719 C 149.929688 204.207031 150.199219 204.179688 150.46875 204.179688 C 150.742188 204.175781 151.007812 204.203125 151.273438 204.253906 C 151.539062 204.304688 151.800781 204.382812 152.050781 204.484375 C 152.300781 204.585938 152.539062 204.714844 152.765625 204.863281 C 152.988281 205.011719 153.199219 205.183594 153.390625 205.375 C 153.582031 205.5625 153.753906 205.773438 153.90625 205.996094 C 154.058594 206.222656 154.1875 206.457031 154.292969 206.707031 C 154.394531 206.957031 154.476562 207.214844 154.53125 207.480469 L 158.179688 225.753906 L 191.621094 236.933594 L 221.015625 225.902344 L 236.265625 138.179688 L 142.246094 138.179688 C 141.976562 138.179688 141.710938 138.15625 141.445312 138.101562 C 141.179688 138.050781 140.921875 137.96875 140.671875 137.867188 C 140.421875 137.761719 140.183594 137.636719 139.957031 137.484375 C 139.734375 137.335938 139.523438 137.164062 139.332031 136.972656 C 139.140625 136.78125 138.972656 136.574219 138.820312 136.347656 C 138.671875 136.121094 138.542969 135.886719 138.441406 135.632812 C 138.335938 135.382812 138.257812 135.125 138.207031 134.859375 C 138.152344 134.59375 138.125 134.328125 138.125 134.054688 C 138.125 133.785156 138.152344 133.515625 138.207031 133.25 C 138.257812 132.984375 138.335938 132.726562 138.441406 132.476562 C 138.542969 132.226562 138.671875 131.988281 138.820312 131.765625 C 138.972656 131.539062 139.140625 131.332031 139.332031 131.140625 C 139.523438 130.949219 139.734375 130.777344 139.957031 130.625 C 140.183594 130.476562 140.421875 130.347656 140.671875 130.246094 C 140.921875 130.140625 141.179688 130.0625 141.445312 130.011719 C 141.710938 129.957031 141.976562 129.929688 142.246094 129.929688 L 241.160156 129.929688 C 241.460938 129.929688 241.761719 129.964844 242.054688 130.027344 C 242.347656 130.09375 242.628906 130.1875 242.902344 130.316406 C 243.175781 130.441406 243.433594 130.597656 243.671875 130.78125 C 243.910156 130.964844 244.125 131.171875 244.320312 131.402344 C 244.511719 131.628906 244.679688 131.878906 244.820312 132.144531 C 244.957031 132.414062 245.066406 132.691406 245.144531 132.984375 C 245.222656 133.273438 245.269531 133.570312 245.28125 133.871094 C 245.296875 134.171875 245.277344 134.46875 245.226562 134.765625 L 228.738281 229.640625 C 228.613281 230.359375 228.316406 231 227.851562 231.5625 C 227.386719 232.125 226.8125 232.535156 226.128906 232.792969 L 193.15625 245.167969 C 192.6875 245.34375 192.203125 245.429688 191.703125 245.429688 Z M 191.703125 245.429688 " fill-opacity="1" fill-rule="nonzero"/><path fill="#fafafa" d="M 232.917969 179.429688 L 146.371094 179.429688 C 146.097656 179.429688 145.832031 179.40625 145.566406 179.351562 C 145.300781 179.300781 145.042969 179.21875 144.792969 179.117188 C 144.542969 179.011719 144.304688 178.886719 144.078125 178.734375 C 143.855469 178.585938 143.644531 178.414062 143.453125 178.222656 C 143.265625 178.03125 143.09375 177.824219 142.941406 177.597656 C 142.792969 177.371094 142.664062 177.136719 142.5625 176.882812 C 142.457031 176.632812 142.378906 176.375 142.328125 176.109375 C 142.273438 175.84375 142.246094 175.578125 142.246094 175.304688 C 142.246094 175.035156 142.273438 174.765625 142.328125 174.5 C 142.378906 174.234375 142.457031 173.976562 142.5625 173.726562 C 142.664062 173.476562 142.792969 173.238281 142.941406 173.015625 C 143.09375 172.789062 143.265625 172.582031 143.453125 172.390625 C 143.644531 172.199219 143.855469 172.027344 144.078125 171.875 C 144.304688 171.726562 144.542969 171.597656 144.792969 171.496094 C 145.042969 171.390625 145.300781 171.3125 145.566406 171.261719 C 145.832031 171.207031 146.097656 171.179688 146.371094 171.179688 L 232.917969 171.179688 C 233.191406 171.179688 233.457031 171.207031 233.722656 171.261719 C 233.988281 171.3125 234.246094 171.390625 234.496094 171.496094 C 234.746094 171.597656 234.984375 171.726562 235.207031 171.875 C 235.433594 172.027344 235.640625 172.199219 235.832031 172.390625 C 236.023438 172.582031 236.195312 172.789062 236.347656 173.015625 C 236.496094 173.238281 236.625 173.476562 236.726562 173.726562 C 236.832031 173.976562 236.910156 174.234375 236.960938 174.5 C 237.015625 174.765625 237.039062 175.035156 237.039062 175.304688 C 237.039062 175.578125 237.015625 175.84375 236.960938 176.109375 C 236.910156 176.375 236.832031 176.632812 236.726562 176.882812 C 236.625 177.136719 236.496094 177.371094 236.347656 177.597656 C 236.195312 177.824219 236.023438 178.03125 235.832031 178.222656 C 235.640625 178.414062 235.433594 178.585938 235.207031 178.734375 C 234.984375 178.886719 234.746094 179.011719 234.496094 179.117188 C 234.246094 179.21875 233.988281 179.300781 233.722656 179.351562 C 233.457031 179.40625 233.191406 179.429688 232.917969 179.429688 Z M 232.917969 179.429688 " fill-opacity="1" fill-rule="nonzero"/></svg>