<svg xmlns="http://www.w3.org/2000/svg" xmlns:xlink="http://www.w3.org/1999/xlink" width="500" zoomAndPan="magnify" viewBox="0 0 375 374.999991" height="500" preserveAspectRatio="xMidYMid meet" version="1.0"><defs><clipPath id="ec9aa495a1"><path d="M 94 199 L 172 199 L 172 236.546875 L 94 236.546875 Z M 94 199 " clip-rule="nonzero"/></clipPath></defs><g clip-path="url(#ec9aa495a1)"><path fill="#00618a" d="M 94.542969 228.058594 L 100.675781 228.058594 L 100.675781 203.917969 L 110.167969 224.96875 C 111.289062 227.507812 112.824219 228.417969 115.828125 228.417969 C 118.835938 228.417969 120.308594 227.515625 121.429688 224.96875 L 130.925781 203.917969 L 130.925781 228.066406 L 137.058594 228.066406 L 137.058594 203.957031 C 137.058594 201.605469 136.113281 200.46875 134.167969 199.878906 C 129.511719 198.429688 126.382812 199.683594 124.96875 202.820312 L 115.65625 223.597656 L 106.632812 202.8125 C 105.277344 199.675781 102.089844 198.421875 97.433594 199.871094 C 95.488281 200.460938 94.542969 201.597656 94.542969 203.949219 Z M 142.15625 208.402344 L 148.285156 208.402344 L 148.285156 221.707031 C 148.226562 222.429688 148.519531 224.128906 151.875 224.179688 C 153.589844 224.207031 165.105469 224.179688 165.210938 224.179688 L 165.210938 208.335938 L 171.355469 208.335938 C 171.382812 208.335938 171.347656 229.9375 171.351562 230.03125 C 171.382812 235.359375 164.71875 236.515625 161.652344 236.605469 L 142.289062 236.605469 L 142.289062 232.492188 L 161.683594 232.488281 C 165.632812 232.074219 165.164062 230.117188 165.164062 229.457031 L 165.164062 227.855469 L 152.132812 227.855469 C 146.070312 227.800781 142.207031 225.160156 142.160156 222.125 C 142.15625 221.851562 142.292969 208.53125 142.15625 208.402344 Z M 142.15625 208.402344 " fill-opacity="1" fill-rule="nonzero"/></g><path fill="#e48e00" d="M 176.082031 228.058594 L 193.710938 228.058594 C 195.773438 228.058594 197.78125 227.625 199.375 226.882812 C 202.027344 225.667969 203.324219 224.019531 203.324219 221.863281 L 203.324219 217.394531 C 203.324219 215.628906 201.851562 213.984375 198.960938 212.886719 C 197.429688 212.296875 195.542969 211.984375 193.714844 211.984375 L 186.285156 211.984375 C 183.808594 211.984375 182.628906 211.238281 182.335938 209.59375 C 182.277344 209.398438 182.277344 209.230469 182.277344 209.042969 L 182.277344 206.261719 C 182.277344 206.105469 182.277344 205.949219 182.335938 205.75 C 182.628906 204.496094 183.277344 204.144531 185.460938 203.9375 C 185.636719 203.9375 185.871094 203.898438 186.050781 203.898438 L 203.5625 203.898438 L 203.5625 199.824219 L 186.34375 199.824219 C 183.867188 199.824219 182.570312 199.980469 181.390625 200.332031 C 177.730469 201.46875 176.136719 203.28125 176.136719 206.417969 L 176.136719 209.984375 C 176.136719 212.730469 179.265625 215.082031 184.511719 215.632812 C 185.101562 215.671875 185.691406 215.710938 186.28125 215.710938 L 192.648438 215.710938 C 192.882812 215.710938 193.121094 215.710938 193.296875 215.75 C 195.242188 215.90625 196.070312 216.257812 196.65625 216.964844 C 197.019531 217.324219 197.128906 217.671875 197.128906 218.050781 L 197.128906 221.617188 C 197.128906 222.050781 196.835938 222.597656 196.246094 223.070312 C 195.714844 223.539062 194.832031 223.851562 193.652344 223.929688 C 193.414062 223.929688 193.238281 223.96875 193.003906 223.96875 L 176.082031 223.96875 Z M 241.578125 220.960938 C 241.578125 225.15625 244.703125 227.507812 251.011719 227.980469 C 251.601562 228.023438 252.191406 228.050781 252.78125 228.058594 L 268.757812 228.058594 L 268.757812 223.980469 L 252.660156 223.980469 C 249.066406 223.980469 247.707031 223.078125 247.707031 220.921875 L 247.707031 199.832031 L 241.578125 199.832031 Z M 207.238281 221.175781 L 207.238281 206.640625 C 207.238281 202.949219 209.835938 200.707031 214.976562 200 C 215.523438 199.921875 216.078125 199.882812 216.632812 199.882812 L 228.269531 199.882812 C 228.84375 199.882812 229.417969 199.921875 229.984375 200 C 235.125 200.707031 237.726562 202.949219 237.726562 206.640625 L 237.726562 221.175781 C 237.726562 224.171875 236.621094 225.773438 234.074219 226.820312 L 240.117188 232.257812 L 232.996094 232.257812 L 228.109375 227.855469 L 223.191406 228.167969 L 216.632812 228.167969 C 215.507812 228.167969 214.328125 228.011719 213.027344 227.65625 C 209.117188 226.597656 207.238281 224.554688 207.238281 221.175781 Z M 213.855469 220.8125 C 213.855469 221.007812 213.914062 221.203125 213.972656 221.441406 C 214.335938 223.128906 215.921875 224.074219 218.335938 224.074219 L 223.90625 224.074219 L 218.789062 219.464844 L 225.910156 219.464844 L 230.363281 223.484375 C 231.1875 223.046875 231.726562 222.378906 231.910156 221.519531 C 231.96875 221.324219 231.96875 221.128906 231.96875 220.929688 L 231.96875 206.996094 C 231.96875 206.839844 231.96875 206.632812 231.910156 206.445312 C 231.546875 204.875 229.957031 203.972656 227.597656 203.972656 L 218.351562 203.972656 C 215.625 203.972656 213.863281 205.148438 213.863281 206.996094 L 213.863281 220.824219 Z M 213.855469 220.8125 " fill-opacity="1" fill-rule="nonzero"/><path fill="#00618a" d="M 274.152344 193.066406 C 270.382812 192.964844 267.5 193.316406 265.039062 194.351562 C 264.339844 194.644531 263.226562 194.652344 263.109375 195.527344 C 263.496094 195.929688 263.554688 196.527344 263.859375 197.023438 C 264.449219 197.972656 265.441406 199.242188 266.328125 199.910156 C 267.292969 200.636719 268.289062 201.414062 269.328125 202.046875 C 271.171875 203.167969 273.234375 203.808594 275.007812 204.933594 C 276.054688 205.59375 277.09375 206.429688 278.117188 207.175781 C 278.621094 207.546875 278.960938 208.121094 279.617188 208.351562 L 279.617188 208.246094 C 279.269531 207.808594 279.183594 207.207031 278.867188 206.75 L 277.472656 205.359375 C 276.109375 203.546875 274.382812 201.972656 272.542969 200.65625 C 271.078125 199.609375 267.796875 198.191406 267.183594 196.488281 L 267.074219 196.378906 C 268.117188 196.261719 269.332031 195.886719 270.292969 195.632812 C 271.90625 195.203125 273.34375 195.3125 275.011719 194.886719 L 277.261719 194.242188 L 277.261719 193.816406 C 276.421875 192.953125 275.820312 191.816406 274.902344 191.035156 C 272.503906 188.996094 269.882812 186.960938 267.1875 185.261719 C 265.691406 184.320312 263.84375 183.710938 262.257812 182.910156 C 261.722656 182.644531 260.785156 182.503906 260.433594 182.054688 C 259.601562 180.996094 259.148438 179.652344 258.503906 178.429688 C 257.160156 175.847656 255.839844 173.023438 254.648438 170.304688 C 253.832031 168.453125 253.300781 166.625 252.289062 164.960938 C 247.421875 156.980469 242.183594 152.164062 234.070312 147.433594 C 232.339844 146.425781 230.261719 146.027344 228.066406 145.507812 L 224.527344 145.292969 C 223.808594 144.996094 223.058594 144.117188 222.382812 143.691406 C 219.695312 141.996094 212.800781 138.3125 210.808594 143.144531 C 209.550781 146.203125 212.6875 149.1875 213.808594 150.734375 C 214.597656 151.824219 215.605469 153.042969 216.167969 154.265625 C 216.535156 155.066406 216.601562 155.871094 216.917969 156.722656 C 217.695312 158.808594 218.375 161.09375 219.382812 163.03125 C 219.890625 164.007812 220.453125 165.039062 221.097656 165.914062 C 221.492188 166.453125 222.167969 166.6875 222.277344 167.519531 C 221.613281 168.445312 221.578125 169.875 221.203125 171.046875 C 219.527344 176.316406 220.160156 182.863281 222.597656 186.761719 C 223.34375 187.957031 225.105469 190.523438 227.527344 189.539062 C 229.644531 188.679688 229.164062 186.015625 229.777344 183.660156 C 229.914062 183.125 229.832031 182.738281 230.101562 182.378906 L 230.101562 182.484375 L 232.03125 186.332031 C 233.457031 188.625 235.992188 191.023438 238.140625 192.640625 C 239.253906 193.480469 240.140625 194.929688 241.570312 195.421875 L 241.570312 195.3125 L 241.460938 195.3125 C 241.183594 194.878906 240.746094 194.699219 240.390625 194.351562 C 239.550781 193.53125 238.617188 192.511719 237.925781 191.574219 C 235.96875 188.929688 234.246094 186.035156 232.671875 183.023438 C 231.921875 181.582031 231.269531 179.996094 230.636719 178.53125 C 230.394531 177.96875 230.394531 177.113281 229.886719 176.824219 C 229.195312 177.894531 228.171875 178.761719 227.636719 180.027344 C 226.777344 182.054688 226.667969 184.523438 226.351562 187.085938 C 226.160156 187.152344 226.246094 187.105469 226.136719 187.191406 C 224.644531 186.832031 224.117188 185.300781 223.5625 183.984375 C 222.160156 180.65625 221.898438 175.304688 223.132812 171.476562 C 223.453125 170.488281 224.898438 167.367188 224.3125 166.453125 C 224.035156 165.542969 223.113281 165.003906 222.597656 164.316406 C 221.960938 163.453125 221.324219 162.316406 220.882812 161.324219 C 219.734375 158.730469 219.199219 155.820312 217.988281 153.199219 C 217.410156 151.945312 216.433594 150.679688 215.632812 149.574219 C 214.742188 148.339844 213.746094 147.429688 213.058594 145.949219 C 212.8125 145.417969 212.480469 144.570312 212.84375 144.023438 C 212.921875 143.671875 213.136719 143.460938 213.488281 143.382812 C 214.109375 142.90625 215.84375 143.539062 216.488281 143.808594 C 218.207031 144.523438 219.644531 145.199219 221.097656 146.160156 C 221.800781 146.613281 222.503906 147.519531 223.351562 147.765625 L 224.3125 147.765625 C 225.820312 148.113281 227.511719 147.875 228.921875 148.300781 C 231.414062 149.054688 233.644531 150.230469 235.671875 151.507812 C 241.851562 155.398438 246.902344 160.9375 250.359375 167.550781 C 250.914062 168.613281 251.152344 169.628906 251.644531 170.757812 C 252.632812 173.023438 253.875 175.375 254.859375 177.597656 C 255.839844 179.816406 256.796875 182.054688 258.183594 183.902344 C 258.910156 184.875 261.726562 185.394531 263.003906 185.933594 C 263.902344 186.3125 265.371094 186.707031 266.222656 187.214844 C 267.84375 188.191406 269.414062 189.355469 270.9375 190.425781 C 271.699219 190.960938 274.035156 192.132812 274.152344 193.097656 Z M 274.152344 193.066406 " fill-opacity="1" fill-rule="nonzero"/><path fill="#00618a" d="M 226.246094 152.34375 C 225.460938 152.328125 224.902344 152.429688 224.316406 152.558594 L 224.316406 152.664062 L 224.421875 152.664062 C 224.796875 153.433594 225.460938 153.925781 225.921875 154.589844 L 226.996094 156.832031 L 227.101562 156.726562 C 227.765625 156.257812 228.070312 155.511719 228.066406 154.375 C 227.800781 154.09375 227.761719 153.746094 227.53125 153.410156 C 227.222656 152.96875 226.621094 152.714844 226.242188 152.339844 Z M 226.246094 152.34375 " fill-opacity="1" fill-rule="evenodd"/><path fill="#e48e00" d="M 271.640625 223.863281 C 271.640625 226.554688 273.773438 228.371094 276.160156 228.371094 C 278.546875 228.371094 280.679688 226.554688 280.679688 223.863281 C 280.679688 221.171875 278.546875 219.359375 276.160156 219.359375 C 273.773438 219.359375 271.640625 221.171875 271.640625 223.863281 Z M 279.667969 223.863281 C 279.667969 225.90625 278.101562 227.433594 276.160156 227.433594 C 274.195312 227.433594 272.652344 225.90625 272.652344 223.863281 C 272.652344 221.820312 274.195312 220.296875 276.160156 220.296875 C 278.101562 220.296875 279.667969 221.820312 279.667969 223.863281 Z M 277.378906 226.4375 L 278.386719 226.4375 L 276.90625 224.179688 C 277.703125 224.09375 278.304688 223.707031 278.304688 222.769531 C 278.304688 221.726562 277.640625 221.292969 276.363281 221.292969 L 274.351562 221.292969 L 274.351562 226.4375 L 275.21875 226.4375 L 275.21875 224.214844 L 276.027344 224.214844 L 277.375 226.4375 Z M 275.21875 223.492188 L 275.21875 222.015625 L 276.21875 222.015625 C 276.738281 222.015625 277.363281 222.109375 277.363281 222.710938 C 277.363281 223.433594 276.796875 223.492188 276.148438 223.492188 Z M 275.21875 223.492188 " fill-opacity="1" fill-rule="evenodd"/></svg>