<svg xmlns="http://www.w3.org/2000/svg" xmlns:xlink="http://www.w3.org/1999/xlink" width="500" zoomAndPan="magnify" viewBox="0 0 375 374.999991" height="500" preserveAspectRatio="xMidYMid meet" version="1.0"><defs><clipPath id="6891e246f0"><path d="M 101.308594 92 L 273.808594 92 L 273.808594 283 L 101.308594 283 Z M 101.308594 92 " clip-rule="nonzero"/></clipPath><clipPath id="75d56f5dc3"><path d="M 101.308594 92 L 272 92 L 272 235 L 101.308594 235 Z M 101.308594 92 " clip-rule="nonzero"/></clipPath><clipPath id="1d89400bef"><path d="M 185 138 L 273.808594 138 L 273.808594 235 L 185 235 Z M 185 138 " clip-rule="nonzero"/></clipPath></defs><g clip-path="url(#6891e246f0)"><path fill="#283593" d="M 182.601562 93.507812 C 185.667969 91.78125 189.445312 91.78125 192.507812 93.507812 C 207.664062 102.039062 253.265625 127.726562 268.425781 136.261719 C 271.492188 137.984375 273.382812 141.171875 273.382812 144.628906 C 273.382812 161.695312 273.382812 213.066406 273.382812 230.132812 C 273.382812 233.585938 271.492188 236.777344 268.425781 238.503906 C 253.269531 247.035156 207.667969 272.722656 192.507812 281.257812 C 189.441406 282.984375 185.664062 282.984375 182.601562 281.257812 C 167.449219 272.722656 121.84375 247.035156 106.683594 238.503906 C 103.621094 236.777344 101.734375 233.589844 101.734375 230.136719 C 101.734375 213.070312 101.734375 161.699219 101.734375 144.632812 C 101.734375 141.179688 103.621094 137.988281 106.691406 136.261719 C 121.839844 127.726562 167.453125 102.039062 182.601562 93.507812 Z M 182.601562 93.507812 " fill-opacity="1" fill-rule="evenodd"/></g><g clip-path="url(#75d56f5dc3)"><path fill="#5c6bc0" d="M 103.109375 234.53125 C 101.90625 232.917969 101.734375 231.386719 101.734375 229.324219 C 101.734375 212.359375 101.734375 161.28125 101.734375 144.308594 C 101.734375 140.875 103.617188 137.703125 106.675781 135.988281 C 121.777344 127.503906 167.226562 101.96875 182.328125 93.480469 C 185.386719 91.761719 189.527344 91.796875 192.585938 93.515625 C 207.6875 102 252.980469 127.320312 268.082031 135.804688 C 269.300781 136.492188 270.234375 137.320312 271.0625 138.414062 Z M 103.109375 234.53125 " fill-opacity="1" fill-rule="evenodd"/></g><path fill="#ffffff" d="M 187.558594 123.933594 C 222.460938 123.933594 250.796875 152.363281 250.796875 187.382812 C 250.796875 222.402344 222.460938 250.828125 187.558594 250.828125 C 152.65625 250.828125 124.320312 222.402344 124.320312 187.382812 C 124.320312 152.363281 152.65625 123.933594 187.558594 123.933594 Z M 187.558594 155.65625 C 205.007812 155.65625 219.175781 169.871094 219.175781 187.382812 C 219.175781 204.890625 205.007812 219.105469 187.558594 219.105469 C 170.109375 219.105469 155.9375 204.890625 155.9375 187.382812 C 155.9375 169.871094 170.105469 155.65625 187.558594 155.65625 Z M 187.558594 155.65625 " fill-opacity="1" fill-rule="evenodd"/><g clip-path="url(#1d89400bef)"><path fill="#3949ab" d="M 271.054688 138.460938 C 273.386719 140.648438 273.339844 143.949219 273.339844 146.542969 C 273.339844 163.742188 273.195312 212.660156 273.382812 229.859375 C 273.398438 231.65625 272.808594 233.542969 271.921875 234.96875 L 185.71875 187.382812 Z M 271.054688 138.460938 " fill-opacity="1" fill-rule="evenodd"/></g></svg>