<svg xmlns="http://www.w3.org/2000/svg" xmlns:xlink="http://www.w3.org/1999/xlink" width="500" zoomAndPan="magnify" viewBox="0 0 375 374.999991" height="500" preserveAspectRatio="xMidYMid meet" version="1.0"><path fill="#146fbf" d="M 102.539062 255.976562 L 240.957031 255.976562 C 245.269531 255.976562 249.574219 252.464844 250.5625 248.128906 L 278.34375 126.960938 C 279.339844 122.625 276.644531 119.113281 272.332031 119.113281 L 133.910156 119.113281 C 129.597656 119.113281 125.292969 122.625 124.308594 126.960938 L 96.523438 248.128906 C 95.53125 252.464844 98.226562 255.976562 102.539062 255.976562 Z M 221.214844 223.320312 C 225.097656 223.320312 228.238281 226.453125 228.261719 230.316406 C 228.238281 234.183594 225.097656 237.308594 221.214844 237.308594 C 221.199219 237.308594 221.1875 237.308594 221.171875 237.308594 L 187.511719 237.308594 C 183.59375 237.308594 180.417969 234.175781 180.417969 230.316406 C 180.441406 226.445312 183.585938 223.320312 187.464844 223.320312 C 187.480469 223.320312 187.496094 223.320312 187.511719 223.320312 L 221.171875 223.320312 C 221.1875 223.320312 221.199219 223.320312 221.214844 223.320312 Z M 132.839844 225.644531 L 189.179688 184.90625 L 189.179688 184.070312 L 153.78125 146.472656 C 150.898438 143.40625 151.195312 138.449219 154.449219 135.394531 C 157.707031 132.335938 162.695312 132.351562 165.582031 135.421875 L 208.058594 180.542969 C 210.464844 183.105469 210.648438 186.976562 208.742188 189.964844 C 208.164062 191.132812 206.964844 192.410156 204.839844 193.910156 L 142.355469 238.707031 C 138.945312 241.1875 134.046875 240.265625 131.421875 236.664062 C 128.792969 233.050781 129.425781 228.125 132.839844 225.644531 Z M 132.839844 225.644531 " fill-opacity="1" fill-rule="nonzero"/></svg>