<svg xmlns="http://www.w3.org/2000/svg" xmlns:xlink="http://www.w3.org/1999/xlink" width="500" zoomAndPan="magnify" viewBox="0 0 375 374.999991" height="500" preserveAspectRatio="xMidYMid meet" version="1.0"><defs><clipPath id="7fb2e94429"><path d="M 92.390625 95.050781 L 279.890625 95.050781 L 279.890625 282.550781 L 92.390625 282.550781 Z M 92.390625 95.050781 " clip-rule="nonzero"/></clipPath></defs><g clip-path="url(#7fb2e94429)"><path fill="#007acc" d="M 92.390625 282.550781 L 279.890625 282.550781 L 279.890625 95.050781 L 92.390625 95.050781 Z M 92.390625 282.550781 " fill-opacity="1" fill-rule="nonzero"/></g><path fill="#ffffff" d="M 133.84375 189.417969 L 133.785156 197.097656 L 158.191406 197.097656 L 158.191406 266.445312 L 175.453125 266.445312 L 175.453125 197.097656 L 199.859375 197.097656 L 199.859375 189.570312 C 199.859375 185.402344 199.769531 181.917969 199.648438 181.828125 C 199.558594 181.710938 184.710938 181.652344 166.699219 181.683594 L 133.933594 181.769531 Z M 133.84375 189.417969 " fill-opacity="1" fill-rule="nonzero"/><path fill="#ffffff" d="M 243.6875 181.558594 C 248.445312 182.742188 252.078125 184.859375 255.410156 188.308594 C 257.132812 190.15625 259.695312 193.519531 259.902344 194.324219 C 259.960938 194.566406 251.808594 200.035156 246.863281 203.105469 C 246.6875 203.222656 245.976562 202.445312 245.171875 201.257812 C 242.761719 197.742188 240.230469 196.226562 236.363281 195.964844 C 230.679688 195.574219 227.015625 198.550781 227.046875 203.523438 C 227.046875 204.980469 227.257812 205.84375 227.851562 207.03125 C 229.101562 209.625 231.425781 211.167969 238.710938 214.324219 C 252.136719 220.097656 257.878906 223.90625 261.453125 229.324219 C 265.4375 235.367188 266.332031 245.007812 263.621094 252.175781 C 260.648438 259.976562 253.265625 265.273438 242.878906 267.03125 C 239.664062 267.59375 232.046875 267.507812 228.589844 266.882812 C 221.0625 265.542969 213.921875 261.824219 209.519531 256.945312 C 207.789062 255.042969 204.429688 250.066406 204.632812 249.710938 C 204.726562 249.59375 205.496094 249.117188 206.363281 248.609375 C 207.195312 248.132812 210.351562 246.316406 213.328125 244.589844 L 218.710938 241.46875 L 219.84375 243.132812 C 221.421875 245.542969 224.878906 248.84375 226.957031 249.949219 C 232.941406 253.101562 241.152344 252.652344 245.203125 249.027344 C 246.929688 247.445312 247.640625 245.8125 247.640625 243.402344 C 247.640625 241.226562 247.378906 240.277344 246.242188 238.640625 C 244.785156 236.554688 241.8125 234.796875 233.359375 231.140625 C 223.683594 226.976562 219.515625 224.382812 215.707031 220.273438 C 213.503906 217.894531 211.421875 214.085938 210.558594 210.898438 C 209.839844 208.253906 209.664062 201.617188 210.230469 198.9375 C 212.226562 189.59375 219.28125 183.074219 229.453125 181.140625 C 232.757812 180.515625 240.441406 180.75 243.6875 181.558594 Z M 243.6875 181.558594 " fill-opacity="1" fill-rule="nonzero"/></svg>